<svg width="24" height="24" viewBox="0 0 24 24" fill="none" xmlns="http://www.w3.org/2000/svg">
<path fill-rule="evenodd" clip-rule="evenodd" d="M16.43 14.93C17.55 15.3 18.75 15.5 20 15.5C20.55 15.5 21 15.95 21 16.5V20C21 20.55 20.55 21 20 21C10.61 21 3 13.39 3 4C3 3.45 3.45 3 4 3H7.5C8.05 3 8.5 3.45 8.5 4C8.5 5.25 8.7 6.45 9.07 7.57C9.18 7.92 9.1 8.31 8.82 8.57L6.62 10.78C8.06 13.62 10.38 15.93 13.21 17.37L15.41 15.17C15.61 14.98 15.86 14.88 16.12 14.88C16.22 14.88 16.33 14.9 16.43 14.93ZM19 12H21C21 7.03 16.97 3 12 3V5C15.87 5 19 8.13 19 12ZM15 12H17C17 9.24 14.76 7 12 7V9C13.66 9 15 10.34 15 12Z" fill="#238b36"/>
</svg>
