<svg width="44" height="39" viewBox="0 0 44 39" fill="none" xmlns="http://www.w3.org/2000/svg">
<path d="M16.7074 17V15.6705L19.8139 12.794C20.0781 12.5384 20.2997 12.3082 20.4787 12.1037C20.6605 11.8991 20.7983 11.6989 20.892 11.5028C20.9858 11.304 21.0327 11.0895 21.0327 10.8594C21.0327 10.6037 20.9744 10.3835 20.858 10.1989C20.7415 10.0114 20.5824 9.8679 20.3807 9.76847C20.179 9.66619 19.9503 9.61506 19.6946 9.61506C19.4276 9.61506 19.1946 9.66903 18.9957 9.77699C18.7969 9.88494 18.6435 10.0398 18.5355 10.2415C18.4276 10.4432 18.3736 10.6832 18.3736 10.9616H16.6222C16.6222 10.3906 16.7514 9.89489 17.0099 9.47443C17.2685 9.05398 17.6307 8.72869 18.0966 8.49858C18.5625 8.26847 19.0994 8.15341 19.7074 8.15341C20.3324 8.15341 20.8764 8.2642 21.3395 8.4858C21.8054 8.70455 22.1676 9.00852 22.4261 9.39773C22.6847 9.78693 22.8139 10.233 22.8139 10.7358C22.8139 11.0653 22.7486 11.3906 22.6179 11.7116C22.4901 12.0327 22.2614 12.3892 21.9318 12.7812C21.6023 13.1705 21.1378 13.6378 20.5384 14.1832L19.2642 15.4318V15.4915H22.929V17H16.7074ZM23.9464 15.4659V14.0128L27.5898 8.27273H28.8427V10.2841H28.1012L25.8043 13.919V13.9872H30.9819V15.4659H23.9464ZM28.1353 17V15.0227L28.1694 14.3793V8.27273H29.8995V17H28.1353ZM28.1619 32L31.7798 24.8409V24.7812H27.5653V23.2727H33.6889V24.8026L30.0668 32H28.1619Z" fill="#ffffff"/>
<rect x="17.6177" y="25.9131" width="20" height="2" transform="rotate(-30 17.6177 25.9131)" fill="#ffffff"/>
<path fill-rule="evenodd" clip-rule="evenodd" d="M40.7639 19.5C40.7639 28.6127 33.3766 36 24.2639 36C21.2475 36 18.4201 35.1906 15.9871 33.7771L13.804 35.9601C16.8266 37.8849 20.415 39 24.2639 39C35.0335 39 43.7639 30.2696 43.7639 19.5C43.7639 8.73045 35.0335 0 24.2639 0C16.7711 0 10.2654 4.22597 7.00013 10.4245L9.97795 11.2385C12.8325 6.313 18.1613 3 24.2639 3C33.3766 3 40.7639 10.3873 40.7639 19.5Z" fill="#ffffff"/>
<path fill-rule="evenodd" clip-rule="evenodd" d="M11 13H3C1.62 13 0.5 14.12 0.5 15.5V32.5C0.5 33.88 1.62 35 3 35H11C12.38 35 13.5 33.88 13.5 32.5V15.5C13.5 14.12 12.38 13 11 13ZM7 34C6.17 34 5.5 33.33 5.5 32.5C5.5 31.67 6.17 31 7 31C7.83 31 8.5 31.67 8.5 32.5C8.5 33.33 7.83 34 7 34ZM2.5 30H11.5V16H2.5V30Z" fill="#ffffff"/>
</svg>
