<svg width="121" height="90" viewBox="0 0 121 90" fill="none" xmlns="http://www.w3.org/2000/svg">
<path d="M35.5469 63.677C35.7982 63.3111 35.4836 62.8236 35.0467 62.9018L24.6676 64.7593C24.4862 64.7917 24.3016 64.7217 24.1873 64.5771L17.749 56.4303C17.477 56.0861 16.9252 56.2341 16.8619 56.6683L15.3631 66.9578C15.3365 67.1406 15.2113 67.2938 15.0375 67.3563L5.12094 70.9217C4.70272 71.0721 4.67386 71.6525 5.07512 71.8436L14.5267 76.345C14.696 76.4256 14.806 76.5943 14.8115 76.7818L15.1145 87.1622C15.1273 87.6035 15.664 87.8127 15.9722 87.4966L23.3151 79.9657C23.4429 79.8345 23.6323 79.7838 23.8086 79.8334L33.9353 82.6846C34.3599 82.8042 34.7201 82.3553 34.5113 81.9667L29.5964 72.8195C29.5078 72.6546 29.5187 72.4541 29.6247 72.2998L35.5469 63.677Z" stroke="#238b36" stroke-width="3"/>
<rect x="53.5" y="74.5" width="66" height="13" stroke="#238b36" stroke-width="3"/>
<rect x="61.5" y="54.5" width="50" height="20" stroke="#238b36" stroke-width="3"/>
<rect x="68.5" y="38.5" width="36" height="16" stroke="#238b36" stroke-width="3"/>
<rect x="66.5" y="26.5" width="40" height="12" stroke="#238b36" stroke-width="3"/>
<rect x="82.5" y="26.5" width="8" height="61" stroke="#238b36" stroke-width="3"/>
<path d="M86.1362 25.4552L86.5165 25.5503L86.8947 25.4471L93.5264 23.6385C96.584 22.8046 97.6 18.9787 95.359 16.7377C93.5008 14.8795 90.4025 15.2078 88.9749 17.414L86.5608 21.1449L84.414 17.4953C83.0956 15.2541 80.1038 14.6894 78.0592 16.2958C75.2511 18.5022 76.2063 22.9727 79.6709 23.8389L86.1362 25.4552Z" stroke="#238b36" stroke-width="3"/>
<path fill-rule="evenodd" clip-rule="evenodd" d="M5.81779 33.8532L5.83232 33.8677L26.1323 54.1677L26.1468 54.1822L26.1612 54.1969C26.6451 54.6943 27.3216 55 28.1 55C28.8605 55 29.5872 54.6771 30.0967 54.1677L56.1967 28.0677C56.6902 27.5741 57 26.8823 57 26.1V5.8C57 4.26685 55.7331 3 54.2 3L33.9 3C33.1287 3 32.4338 3.30181 31.9033 3.83232L5.80332 29.9323C5.30978 30.4259 5 31.1177 5 31.9C5 32.6784 5.30572 33.3549 5.80306 33.8388L5.81779 33.8532ZM58.318 30.189L32.218 56.289C31.174 57.333 29.695 58 28.1 58C26.505 58 25.055 57.362 24.011 56.289L3.711 35.989C2.638 34.945 2 33.495 2 31.9C2 30.305 2.638 28.855 3.682 27.811L29.782 1.711C30.855 0.638 32.305 0 33.9 0L54.2 0C57.39 0 60 2.61 60 5.8V26.1C60 27.695 59.362 29.145 58.318 30.189ZM48.95 5.2002C52.1809 5.2002 54.8 7.81933 54.8 11.0502C54.8 14.2811 52.1809 16.9002 48.95 16.9002C45.7192 16.9002 43.1 14.2811 43.1 11.0502C43.1 7.81933 45.7192 5.2002 48.95 5.2002ZM51.8 11.0502C51.8 9.47618 50.5241 8.2002 48.95 8.2002C47.376 8.2002 46.1 9.47618 46.1 11.0502C46.1 12.6242 47.376 13.9002 48.95 13.9002C50.5241 13.9002 51.8 12.6242 51.8 11.0502Z" fill="#238b36"/>
<path d="M33.7109 34.9091V33.7585C33.7109 32.8849 33.8956 32.0824 34.2649 31.3509C34.6413 30.6122 35.1847 30.0227 35.8949 29.5824C36.6122 29.1349 37.4858 28.9112 38.5156 28.9112C39.5597 28.9112 40.4368 29.1314 41.147 29.5717C41.8643 30.0121 42.4041 30.6016 42.7663 31.3402C43.1357 32.0717 43.3203 32.8778 43.3203 33.7585V34.9091C43.3203 35.7827 43.1357 36.5888 42.7663 37.3274C42.397 38.0589 41.8537 38.6449 41.1364 39.0852C40.419 39.5327 39.5455 39.7564 38.5156 39.7564C37.4716 39.7564 36.5945 39.5327 35.8842 39.0852C35.174 38.6449 34.6342 38.0589 34.2649 37.3274C33.8956 36.5888 33.7109 35.7827 33.7109 34.9091ZM36.8111 33.7585V34.9091C36.8111 35.4134 36.9318 35.8892 37.1733 36.3366C37.4219 36.7841 37.8693 37.0078 38.5156 37.0078C39.1619 37.0078 39.6023 36.7876 39.8366 36.3473C40.0781 35.907 40.1989 35.4276 40.1989 34.9091V33.7585C40.1989 33.2401 40.0852 32.7571 39.858 32.3097C39.6307 31.8622 39.1832 31.6385 38.5156 31.6385C37.8764 31.6385 37.4325 31.8622 37.1839 32.3097C36.9354 32.7571 36.8111 33.2401 36.8111 33.7585ZM22.5142 22.4233V21.2727C22.5142 20.392 22.7024 19.5859 23.0788 18.8544C23.4553 18.1158 23.9986 17.5263 24.7088 17.0859C25.4261 16.6456 26.2926 16.4254 27.3082 16.4254C28.3594 16.4254 29.2401 16.6456 29.9503 17.0859C30.6605 17.5263 31.2003 18.1158 31.5696 18.8544C31.9389 19.5859 32.1236 20.392 32.1236 21.2727V22.4233C32.1236 23.304 31.9354 24.1101 31.5589 24.8416C31.1896 25.5732 30.6463 26.1591 29.929 26.5994C29.2188 27.0327 28.3452 27.2493 27.3082 27.2493C26.2713 27.2493 25.3942 27.0291 24.6768 26.5888C23.9666 26.1413 23.4268 25.5554 23.0575 24.831C22.6953 24.0994 22.5142 23.2969 22.5142 22.4233ZM25.6357 21.2727V22.4233C25.6357 22.9418 25.7564 23.4212 25.9979 23.8615C26.2464 24.3018 26.6832 24.522 27.3082 24.522C27.9616 24.522 28.4055 24.3018 28.6399 23.8615C28.8814 23.4212 29.0021 22.9418 29.0021 22.4233V21.2727C29.0021 20.7543 28.8885 20.2713 28.6612 19.8239C28.4339 19.3764 27.983 19.1527 27.3082 19.1527C26.6761 19.1527 26.2393 19.38 25.9979 19.8345C25.7564 20.2891 25.6357 20.7685 25.6357 21.2727ZM23.9205 39L38.9205 17.1818H41.7116L26.7116 39H23.9205Z" fill="#238b36"/>
</svg>
