<svg width="49" height="73" viewBox="0 0 49 73" fill="none" xmlns="http://www.w3.org/2000/svg">
<path d="M10.4857 44.2673C11.6595 48.559 12.1758 55.5345 12.1758 55.5345H37.5269C37.5269 55.5345 37.5851 48.5583 38.6537 44.2673C40.4613 37.0088 46.67 34.7799 47.6674 27.3665C48.0488 24.5319 48.1263 22.8658 47.6674 20.0428C46.0691 10.2107 39.9769 3.37558 30.2033 1.45194C26.9653 0.814643 25.0039 0.885095 21.7529 1.45194C11.327 3.26976 3.76713 9.6023 2.03529 20.0428C1.56727 22.8643 1.67017 24.5298 2.03529 27.3665C2.97732 34.6853 8.53889 37.1495 10.4857 44.2673Z" stroke="black" stroke-width="2"/>
<path d="M32.4566 32.4385H16.1191L24.5695 55.5362L32.4566 32.4385Z" stroke="black" stroke-width="2"/>
<rect x="12.0491" y="55.9727" width="25.6046" height="16.0275" fill="#8DC63F" stroke="black" stroke-width="2"/>
</svg>
