<svg width="72" height="72" viewBox="0 0 72 72" fill="none" xmlns="http://www.w3.org/2000/svg">
<mask id="path-1-inside-1_940_1383" fill="white">
<path fill-rule="evenodd" clip-rule="evenodd" d="M36 72C55.8823 72 72 55.8823 72 36C72 16.1177 55.8823 0 36 0C16.1177 0 0 16.1177 0 36C0 55.8823 16.1177 72 36 72ZM36 62.8732C50.8417 62.8732 62.8732 50.8417 62.8732 36C62.8732 21.1583 50.8417 9.12676 36 9.12676C21.1583 9.12676 9.12676 21.1583 9.12676 36C9.12676 50.8417 21.1583 62.8732 36 62.8732Z"/>
</mask>
<path fill-rule="evenodd" clip-rule="evenodd" d="M36 72C55.8823 72 72 55.8823 72 36C72 16.1177 55.8823 0 36 0C16.1177 0 0 16.1177 0 36C0 55.8823 16.1177 72 36 72ZM36 62.8732C50.8417 62.8732 62.8732 50.8417 62.8732 36C62.8732 21.1583 50.8417 9.12676 36 9.12676C21.1583 9.12676 9.12676 21.1583 9.12676 36C9.12676 50.8417 21.1583 62.8732 36 62.8732Z" fill="#8DC63F"/>
<path d="M70 36C70 54.7777 54.7777 70 36 70V74C56.9868 74 74 56.9868 74 36H70ZM36 2C54.7777 2 70 17.2223 70 36H74C74 15.0132 56.9868 -2 36 -2V2ZM2 36C2 17.2223 17.2223 2 36 2V-2C15.0132 -2 -2 15.0132 -2 36H2ZM36 70C17.2223 70 2 54.7777 2 36H-2C-2 56.9868 15.0132 74 36 74V70ZM60.8732 36C60.8732 49.7371 49.7371 60.8732 36 60.8732V64.8732C51.9462 64.8732 64.8732 51.9462 64.8732 36H60.8732ZM36 11.1268C49.7371 11.1268 60.8732 22.2629 60.8732 36H64.8732C64.8732 20.0538 51.9462 7.12676 36 7.12676V11.1268ZM11.1268 36C11.1268 22.2629 22.2629 11.1268 36 11.1268V7.12676C20.0537 7.12676 7.12676 20.0537 7.12676 36H11.1268ZM36 60.8732C22.2629 60.8732 11.1268 49.7371 11.1268 36H7.12676C7.12676 51.9462 20.0538 64.8732 36 64.8732V60.8732Z" fill="black" mask="url(#path-1-inside-1_940_1383)"/>
<path d="M34.4788 22.817C34.4788 21.9769 35.1598 21.2959 35.9999 21.2959V21.2959C36.84 21.2959 37.521 21.9769 37.521 22.817V34.5072C37.521 35.6117 36.6256 36.5072 35.521 36.5072H34.4788V22.817Z" fill="black"/>
<path d="M53.1143 43.3454C53.8479 43.7689 54.0993 44.707 53.6757 45.4407V45.4407C53.2571 46.1656 52.3346 46.4211 51.6028 46.0147L34.4788 36.5067L35.0502 35.3639C35.5653 34.3338 36.8417 33.9504 37.8391 34.5262L53.1143 43.3454Z" fill="black"/>
</svg>
