<svg width="134" height="80" viewBox="0 0 134 80" fill="none" xmlns="http://www.w3.org/2000/svg">
<g clip-path="url(#clip0_1024_1424)">
<path d="M58.1642 64.1011C58.3965 63.1592 59.42 62.7542 60.3619 62.7542C60.6208 62.7535 60.8786 62.7883 61.128 62.8578C61.2284 62.8829 61.5612 62.9708 62.6695 63.244C62.9017 62.9197 63.1567 62.6123 63.4324 62.3241L64.8766 60.8391C64.1859 60.3964 63.4199 59.8972 62.6789 59.4357C61.7841 58.8705 60.9365 58.3337 60.3054 57.9192C59.1846 57.1846 58.5661 56.7764 58.6571 55.8408C58.7544 54.8424 59.7057 54.2239 61.1437 54.2239C61.79 54.2272 62.4296 54.3551 63.0274 54.6007C63.2315 54.6855 63.8155 54.9146 65.3821 55.5206L65.4575 55.4452C65.634 55.2641 65.8449 55.12 66.0778 55.0214C66.3107 54.9227 66.5609 54.8715 66.8138 54.8707C67.3051 54.8702 67.7772 55.0618 68.1293 55.4044L68.3428 55.6116C68.4634 55.7253 68.5689 55.8541 68.6567 55.9947C71.5169 51.3998 73.3196 46.2265 73.9344 40.8493H71.1747C70.8945 40.8493 70.617 40.794 70.3582 40.6867C70.0993 40.5794 69.8642 40.4221 69.6662 40.2238C69.4682 40.0255 69.3112 39.7901 69.2043 39.5311C69.0973 39.2721 69.0425 38.9945 69.0429 38.7143V38.3815C69.0429 37.8162 69.2675 37.2739 69.6673 36.8741C70.0671 36.4744 70.6093 36.2498 71.1747 36.2498H74.1699C74.0689 27.0576 70.5207 18.2383 64.2275 11.5375C57.9342 4.8367 49.3546 0.742734 40.1869 0.0659315V2.9575C40.186 3.52317 39.9608 4.06539 39.5605 4.46509C39.1602 4.86478 38.6176 5.08928 38.052 5.08928H37.7066C37.1412 5.08928 36.599 4.86468 36.1992 4.4649C35.7994 4.06511 35.5748 3.52288 35.5748 2.9575V0C26.2479 0.476522 17.4536 4.4916 10.9843 11.227C4.51486 17.9624 0.857222 26.9112 0.756714 36.2498H3.76759C4.33297 36.2498 4.8752 36.4744 5.27498 36.8741C5.67477 37.2739 5.89937 37.8162 5.89937 38.3815V38.7143C5.89978 38.9945 5.84495 39.2721 5.738 39.5311C5.63105 39.7901 5.47409 40.0255 5.2761 40.2238C5.0781 40.4221 4.84295 40.5794 4.58411 40.6867C4.32526 40.794 4.0478 40.8493 3.76759 40.8493H0.992183C1.98599 49.4749 6.00616 57.4687 12.3381 63.4097C18.67 69.3507 26.9034 72.8541 35.5748 73.297V70.3269C35.5748 69.7615 35.7994 69.2193 36.1992 68.8195C36.599 68.4197 37.1412 68.1951 37.7066 68.1951H38.0394C38.3206 68.1935 38.5993 68.2474 38.8595 68.3537C39.1198 68.4601 39.3565 68.6168 39.556 68.8149C39.7556 69.0129 39.914 69.2485 40.0223 69.508C40.1305 69.7674 40.1865 70.0458 40.1869 70.3269V73.2216C47.1219 72.7119 53.7668 70.2304 59.3384 66.0696L59.1908 65.9692C58.6854 65.6175 57.9193 65.0995 58.1642 64.1011Z" fill="#BEDAA8"/>
<path d="M3.34224e-05 49.2166C3.34224e-05 47.8478 0.596556 46.6966 1.7896 45.7631L10.6747 38.4855C11.6584 37.6818 12.4956 36.9597 13.1863 36.3192C13.7942 35.7626 14.3549 35.1567 14.8629 34.5076C15.2664 33.996 15.5845 33.4224 15.8048 32.8091C16.0032 32.2184 16.1019 31.5988 16.0967 30.9756C16.0967 29.6319 15.7074 28.6209 14.9351 27.9333C14.0852 27.2225 12.9997 26.8561 11.8928 26.9067C10.9727 26.8913 10.0642 27.1141 9.25556 27.5534C8.33097 28.1113 7.50114 28.8129 6.79726 29.6319C6.51842 29.9014 6.20097 30.1278 5.85538 30.3037C5.42641 30.523 4.94924 30.6309 4.46768 30.6177C4.05829 30.6222 3.65229 30.5432 3.27444 30.3855C2.89659 30.2279 2.55481 29.995 2.26996 29.7009C1.9759 29.4161 1.74295 29.0743 1.58534 28.6964C1.42772 28.3186 1.34873 27.9126 1.3532 27.5032C1.34892 26.7125 1.63618 25.948 2.16007 25.3557C3.33139 23.9496 4.76985 22.7897 6.39225 21.943C7.9746 21.1393 9.96301 20.7363 12.3575 20.7342C13.8512 20.7174 15.337 20.952 16.7529 21.4281C18.0038 21.8458 19.1595 22.5074 20.1531 23.3746C21.0995 24.2144 21.8498 25.2519 22.3508 26.4138C22.8863 27.6718 23.1536 29.0276 23.1357 30.3948V30.4827C23.1483 31.6736 22.9692 32.8588 22.6051 33.9928C22.2538 35.0354 21.7411 36.0164 21.0855 36.9C20.3321 37.898 19.4732 38.8116 18.5236 39.6252C17.4771 40.5357 16.2694 41.5267 14.9005 42.5984L9.79243 46.5354H20.7025C21.0965 46.5329 21.4872 46.6087 21.8517 46.7583C22.2162 46.908 22.5474 47.1285 22.826 47.4071C23.1046 47.6857 23.3252 48.0169 23.4748 48.3814C23.6244 48.746 23.7002 49.1366 23.6977 49.5306C23.7057 49.9221 23.6322 50.3109 23.482 50.6725C23.3317 51.0341 23.108 51.3605 22.8249 51.631C22.5465 51.9082 22.215 52.1264 21.8503 52.2725C21.4857 52.4187 21.0953 52.4899 20.7025 52.4818H3.71103C2.75216 52.5196 1.81063 52.2184 1.0518 51.631C0.699232 51.3394 0.420292 50.9689 0.237567 50.5494C0.0548413 50.13 -0.0265329 49.6734 3.34224e-05 49.2166Z" fill="#238B36"/>
<path d="M39.7379 45.7285H26.8655C25.9875 45.7481 25.136 45.4275 24.4888 44.8338C24.1685 44.5487 23.9145 44.1969 23.7447 43.8031C23.575 43.4093 23.4935 42.9831 23.5062 42.5544C23.4983 41.8758 23.6432 41.2041 23.93 40.589C24.2451 39.9428 24.6441 39.3411 25.1168 38.7995L38.7112 23.0167C39.2527 22.348 39.887 21.7601 40.595 21.2711C41.3281 20.8489 42.1675 20.6472 43.0125 20.6903C43.4471 20.6817 43.879 20.7607 44.2824 20.9225C44.6859 21.0843 45.0526 21.3257 45.3609 21.6322C45.6728 21.9327 45.9192 22.2945 46.0846 22.6949C46.2499 23.0953 46.3306 23.5255 46.3216 23.9586V40.1432H47.9762C48.7256 40.1432 49.4443 40.4409 49.9742 40.9708C50.5041 41.5007 50.8018 42.2194 50.8018 42.9688C50.8082 43.3363 50.7381 43.701 50.5959 44.0399C50.4538 44.3788 50.2427 44.6844 49.9761 44.9374C49.7151 45.1979 49.4044 45.4034 49.0625 45.5414C48.7205 45.6795 48.3543 45.7474 47.9856 45.7411H46.331V49.5086C46.3409 49.9413 46.2606 50.3714 46.0952 50.7714C45.9298 51.1714 45.6829 51.5326 45.3703 51.8319C45.062 52.1384 44.6953 52.3798 44.2918 52.5416C43.8884 52.7034 43.4565 52.7824 43.0219 52.7738C42.5914 52.781 42.1638 52.7016 41.7646 52.5402C41.3654 52.3789 41.0027 52.1389 40.6981 51.8346C40.3935 51.5303 40.1532 51.1678 39.9915 50.7688C39.8297 50.3698 39.7499 49.9423 39.7567 49.5117L39.7379 45.7285ZM39.7379 40.1401V30.4073L31.4242 40.1401H39.7379Z" fill="#238B36"/>
<path d="M52.6448 49.6657C52.6533 49.3085 52.7125 48.9544 52.8206 48.6139C52.9316 48.234 53.0821 47.8668 53.2696 47.5182L64.8861 27.1297H52.9117C52.5188 27.1381 52.1284 27.0671 51.7636 26.9209C51.3989 26.7747 51.0675 26.5563 50.7893 26.2788C50.5053 26.0085 50.2812 25.6816 50.1314 25.3193C49.9816 24.957 49.9095 24.5672 49.9196 24.1753C49.9176 23.7814 49.9936 23.391 50.1434 23.0266C50.2932 22.6623 50.5137 22.3313 50.7923 22.0528C51.0708 21.7742 51.4018 21.5537 51.7662 21.4039C52.1305 21.2541 52.5209 21.1781 52.9148 21.1801H69.9063C70.7404 21.1365 71.5581 21.4229 72.1825 21.9776C72.7476 22.5134 73.0302 23.2742 73.0302 24.2601C73.0222 24.8206 72.9323 25.377 72.7633 25.9115C72.5885 26.5085 72.3484 27.0844 72.0475 27.6289L59.4891 50.4317C59.1503 51.1377 58.645 51.7508 58.0167 52.2182C57.4736 52.5779 56.8345 52.765 56.1831 52.755C55.2961 52.7682 54.43 52.4854 53.7217 51.9513C53.3686 51.6878 53.0857 51.3415 52.8979 50.9429C52.7101 50.5444 52.6232 50.1057 52.6448 49.6657Z" fill="#238B36"/>
<path d="M1.11146 56.2241C1.09466 56.1966 1.0835 56.1661 1.07865 56.1343C1.0738 56.1025 1.07534 56.0701 1.0832 56.0389C1.09157 56.0077 1.10619 55.9785 1.12615 55.9532C1.14612 55.9278 1.17103 55.9067 1.19936 55.8913C1.22746 55.8733 1.25894 55.8612 1.29188 55.8558C1.32481 55.8504 1.3585 55.8518 1.39088 55.8599C1.42299 55.8669 1.45327 55.8806 1.47977 55.9001C1.50626 55.9196 1.52839 55.9444 1.54472 55.9729L1.58553 56.0451L2.44264 55.5428C2.52093 55.4971 2.61416 55.4843 2.70187 55.5072C2.78958 55.5302 2.86459 55.587 2.91044 55.6652L3.34999 56.4187C3.46584 56.6118 3.54463 56.8247 3.58232 57.0467C3.61786 57.255 3.61252 57.4683 3.56662 57.6746C3.5196 57.8701 3.43306 58.0538 3.31231 58.2146C3.18737 58.3814 3.02914 58.5203 2.84765 58.6227C2.66802 58.7303 2.46818 58.7998 2.26055 58.8268C2.0608 58.8534 1.85772 58.8384 1.66402 58.7829C1.46403 58.7227 1.27749 58.6247 1.11459 58.494C0.937132 58.3514 0.788032 58.1768 0.675051 57.9791L0.229229 57.2319C0.205907 57.1931 0.190806 57.15 0.184864 57.1052C0.178923 57.0604 0.182269 57.0148 0.194694 56.9713C0.204544 56.9276 0.223651 56.8864 0.250729 56.8507C0.277807 56.8149 0.312227 56.7854 0.351673 56.7641L1.15227 56.2963L1.11146 56.2241ZM1.92461 56.626L2.12554 56.9713C2.14285 56.9997 2.15402 57.0314 2.15835 57.0644C2.16267 57.0974 2.16005 57.1309 2.15066 57.1628C2.13181 57.2283 2.08778 57.2836 2.02822 57.3167C2.00076 57.3335 1.96999 57.3442 1.93801 57.348C1.90603 57.3518 1.87361 57.3486 1.84298 57.3386C1.81151 57.331 1.78191 57.3171 1.756 57.2976C1.7301 57.2782 1.70841 57.2537 1.69228 57.2256L1.49135 56.8803L0.929359 57.1942L1.19936 57.6589C1.26315 57.7717 1.34724 57.8717 1.44739 57.954C1.53897 58.0299 1.64618 58.0845 1.76135 58.1141C1.87631 58.143 1.99591 58.1483 2.11299 58.1298C2.23964 58.111 2.36129 58.0673 2.4709 58.0011C2.58266 57.9384 2.68085 57.8541 2.75974 57.7531C2.83452 57.6608 2.88909 57.5539 2.91992 57.4393C2.95075 57.3246 2.95715 57.2048 2.9387 57.0875C2.92348 56.9622 2.88516 56.8408 2.82567 56.7296L2.55567 56.2649L1.92461 56.626Z" fill="#238B36"/>
<path d="M2.653 61.1778C2.5185 60.9895 2.42346 60.7759 2.37358 60.5499C2.32644 60.3439 2.31899 60.1308 2.3516 59.922C2.38653 59.7194 2.46008 59.5254 2.56823 59.3505C2.68451 59.1714 2.83365 59.0159 3.00778 58.8922C3.18122 58.7666 3.3791 58.6789 3.5886 58.6347C3.79489 58.5887 4.00819 58.5833 4.21652 58.619C4.43212 58.6587 4.63762 58.7411 4.82093 58.8613C5.00424 58.9816 5.16168 59.1372 5.28398 59.3192C5.31852 59.3662 5.34991 59.4165 5.38131 59.4667C5.41271 59.5169 5.43468 59.5735 5.4598 59.6268C5.48492 59.6802 5.49747 59.6802 5.52259 59.721L5.60736 59.8435L5.67957 59.9534L5.71411 60.0036C5.74167 60.0415 5.77444 60.0753 5.81143 60.1041C5.83416 60.1212 5.86151 60.131 5.88992 60.1323C5.91581 60.1306 5.94076 60.1219 5.96213 60.1072L6.04376 60.0538C6.06933 60.0327 6.09896 60.0171 6.13083 60.0079C6.1627 59.9987 6.19611 59.9962 6.229 60.0004C6.30192 60.0248 6.36336 60.0751 6.40168 60.1417C6.4265 60.1665 6.44523 60.1967 6.45638 60.2299C6.46754 60.2631 6.47081 60.2985 6.46593 60.3332C6.46106 60.3679 6.44818 60.401 6.42831 60.4299C6.40844 60.4588 6.38212 60.4827 6.35144 60.4996C6.23723 60.5886 6.09998 60.643 5.95586 60.6566C5.88655 60.6544 5.81846 60.6379 5.7558 60.6082C5.69315 60.5784 5.63728 60.5362 5.59166 60.4839C5.56474 60.7053 5.49318 60.9189 5.38131 61.1119C5.26723 61.3047 5.11174 61.4699 4.92607 61.5954C4.75203 61.7199 4.55437 61.8075 4.34524 61.8528C4.13793 61.8937 3.92464 61.8937 3.71732 61.8528C3.50944 61.8157 3.31096 61.7378 3.13336 61.6236C2.94532 61.5083 2.78205 61.3567 2.653 61.1778ZM3.17103 60.8199C3.24473 60.9272 3.33988 61.0181 3.45046 61.0867C3.55361 61.1504 3.66926 61.1911 3.78953 61.206C4.04056 61.2371 4.29405 61.1721 4.49908 61.024C4.60421 60.9492 4.69557 60.8568 4.76909 60.7508C4.83675 60.6475 4.88465 60.5325 4.91037 60.4117C4.93232 60.2903 4.93232 60.1659 4.91037 60.0444C4.88439 59.9177 4.83196 59.7979 4.75653 59.6928C4.68192 59.5851 4.58568 59.4942 4.47397 59.4259C4.37017 59.3636 4.25482 59.323 4.13489 59.3066C3.8849 59.2763 3.63269 59.3413 3.42848 59.4887C3.32181 59.5629 3.23018 59.6566 3.15848 59.765C3.09031 59.8669 3.04235 59.9809 3.01719 60.1009C2.99205 60.221 2.99205 60.345 3.01719 60.4651C3.04239 60.593 3.09486 60.714 3.17103 60.8199Z" fill="#238B36"/>
<path d="M6.14732 61.1721C6.18165 61.1426 6.22163 61.1204 6.26481 61.1069C6.308 61.0935 6.35348 61.0889 6.39848 61.0936C6.4435 61.0956 6.48756 61.1073 6.52764 61.1279C6.56773 61.1485 6.60292 61.1775 6.63081 61.2129L6.67477 61.2694C6.72428 61.3222 6.7561 61.3892 6.76582 61.4609C6.76954 61.5304 6.76426 61.6 6.75012 61.6681L6.27918 63.7905L7.50676 62.7607C7.53946 62.7305 7.57821 62.7076 7.62043 62.6936C7.66265 62.6795 7.70738 62.6745 7.75165 62.6791C7.79611 62.6831 7.83932 62.696 7.87869 62.717C7.91806 62.738 7.9528 62.7668 7.98084 62.8015C8.00935 62.8353 8.03092 62.8744 8.04431 62.9165C8.05769 62.9586 8.06263 63.003 8.05884 63.047C8.05504 63.0911 8.0426 63.1339 8.02221 63.1732C8.00182 63.2124 7.97389 63.2472 7.94003 63.2756L6.05627 64.8642C6.02208 64.8938 5.98231 64.9162 5.93932 64.9302C5.89633 64.9442 5.85097 64.9495 5.80592 64.9457C5.76087 64.9419 5.71704 64.9291 5.677 64.9081C5.63696 64.8871 5.60152 64.8583 5.57277 64.8234V64.8077C5.52441 64.7541 5.49276 64.6876 5.48172 64.6162C5.47635 64.5457 5.48164 64.4748 5.49742 64.4059L5.99034 62.2081L4.71566 63.2787C4.6827 63.3084 4.64383 63.3307 4.60162 63.3442C4.55941 63.3577 4.51482 63.3622 4.47077 63.3572C4.42605 63.3544 4.38245 63.342 4.34292 63.3208C4.30338 63.2997 4.26883 63.2704 4.24158 63.2348C4.2114 63.2021 4.18851 63.1633 4.17444 63.1211C4.16036 63.0789 4.15543 63.0342 4.15995 62.9899C4.16429 62.9455 4.17734 62.9024 4.19835 62.8631C4.21936 62.8238 4.24792 62.789 4.2824 62.7607L6.14732 61.1721Z" fill="#238B36"/>
<path d="M8.16301 67.5608C7.9985 67.4047 7.86437 67.2195 7.76742 67.0145C7.68004 66.8285 7.63194 66.6265 7.62614 66.4211C7.62015 66.2163 7.65538 66.0124 7.72975 65.8214C7.8118 65.6192 7.93228 65.4347 8.08452 65.2783C8.23144 65.123 8.40746 64.9982 8.60256 64.9109C8.79185 64.8276 8.99549 64.7818 9.20222 64.7759C9.41822 64.7702 9.63312 64.8085 9.83389 64.8884C10.0347 64.9682 10.2171 65.0881 10.3701 65.2406C10.5206 65.3776 10.6497 65.5363 10.7532 65.7115C10.8352 65.861 10.8945 66.0218 10.929 66.1888C10.9369 66.2355 10.9369 66.2833 10.929 66.33C10.9125 66.4019 10.8728 66.4664 10.8161 66.5135C10.7594 66.5606 10.6887 66.5877 10.615 66.5906C10.5704 66.5931 10.5257 66.5859 10.484 66.5697C10.4423 66.5534 10.4045 66.5285 10.3733 66.4964C10.3404 66.4695 10.3146 66.435 10.2979 66.396C10.2865 66.3652 10.2771 66.3338 10.2697 66.3018C10.2497 66.1925 10.2138 66.0867 10.1629 65.9878C10.1045 65.8696 10.0246 65.7631 9.92747 65.6739C9.83873 65.5884 9.7312 65.525 9.61351 65.4886C9.50003 65.4523 9.38079 65.4374 9.26187 65.4447C9.14106 65.4508 9.02263 65.4807 8.91338 65.5326C8.79515 65.587 8.68854 65.6638 8.59942 65.7586C8.50588 65.8542 8.43037 65.9659 8.37651 66.0883C8.32827 66.2025 8.3037 66.3253 8.30429 66.4493C8.30302 66.5714 8.32763 66.6923 8.37651 66.8041C8.42775 66.9234 8.50373 67.0304 8.59942 67.1181C8.75949 67.2822 8.96703 67.392 9.1928 67.432L9.50676 67.1181L9.17082 66.8041C9.14301 66.7769 9.12091 66.7444 9.10582 66.7086C9.09073 66.6727 9.08296 66.6342 9.08296 66.5953C9.08296 66.5564 9.09073 66.5179 9.10582 66.4821C9.12091 66.4462 9.14301 66.4137 9.17082 66.3866C9.19758 66.3575 9.23012 66.3344 9.26635 66.3187C9.30258 66.3031 9.3417 66.2951 9.38118 66.2955C9.41999 66.2937 9.45874 66.3001 9.49496 66.3141C9.53118 66.3282 9.56407 66.3497 9.59153 66.3771L10.1567 66.9171C10.1898 66.9475 10.2163 66.9844 10.2347 67.0254C10.253 67.0665 10.2628 67.1108 10.2634 67.1558C10.2648 67.2008 10.2571 67.2456 10.241 67.2877C10.2248 67.3297 10.2004 67.3681 10.1692 67.4006L9.64804 67.9438C9.59143 68.0113 9.5168 68.0612 9.43287 68.0879C9.34893 68.1146 9.25914 68.1169 9.17396 68.0945C9.00863 68.0554 8.84768 67.9997 8.6936 67.9281C8.49655 67.8378 8.31694 67.7134 8.16301 67.5608Z" fill="#238B36"/>
<path d="M11.4627 66.7104C11.5212 66.6408 11.6046 66.5969 11.695 66.5879C11.7857 66.581 11.8754 66.61 11.9448 66.6688C12.0141 66.7276 12.0575 66.8113 12.0655 66.9019C12.0694 66.9471 12.0642 66.9926 12.0502 67.0357C12.0361 67.0789 12.0136 67.1188 11.9839 67.1531L10.3796 69.0368C10.3517 69.0722 10.3165 69.1012 10.2764 69.1218C10.2363 69.1424 10.1922 69.1541 10.1472 69.1561C10.1027 69.1615 10.0575 69.1573 10.0147 69.1438C9.97191 69.1302 9.93253 69.1077 9.8992 69.0776C9.82982 69.018 9.78691 68.9334 9.77989 68.8422C9.77608 68.7975 9.78134 68.7524 9.79537 68.7098C9.8094 68.6672 9.8319 68.6278 9.86152 68.5941L11.4627 66.7104Z" fill="#238B36"/>
<path d="M10.7155 69.3852C10.7291 69.3637 10.7474 69.3455 10.7689 69.3319C10.7892 69.3158 10.8113 69.3021 10.8348 69.2911L13.1864 67.9913C13.2616 67.9473 13.3473 67.9246 13.4344 67.9253C13.5193 67.9313 13.6004 67.9631 13.6667 68.0164L13.7013 68.0384C13.7693 68.0905 13.8206 68.1615 13.8488 68.2424C13.8694 68.3249 13.8694 68.4112 13.8488 68.4936L13.2209 71.0963C13.213 71.1427 13.1947 71.1867 13.1675 71.2251C13.1156 71.2959 13.0377 71.3433 12.9509 71.3569C12.9087 71.3627 12.8658 71.3598 12.8248 71.3485C12.7838 71.3371 12.7455 71.3176 12.7123 71.291C12.6519 71.2515 12.6083 71.1911 12.5898 71.1214C12.5741 71.0511 12.5741 70.9783 12.5898 70.908L12.7186 70.3931L11.6291 69.5673L11.1488 69.8436C11.0896 69.8772 11.0221 69.8935 10.9541 69.8907C10.8865 69.8882 10.8216 69.864 10.7689 69.8217C10.7359 69.7964 10.7083 69.7649 10.6876 69.729C10.6669 69.693 10.6535 69.6533 10.6483 69.6121C10.643 69.5709 10.646 69.5291 10.657 69.4891C10.668 69.4491 10.6868 69.4117 10.7124 69.379L10.7155 69.3852ZM12.8724 69.7589L13.1487 68.682L12.188 69.2377L12.8724 69.7589ZM13.8143 67.8751C13.7956 67.8653 13.7792 67.8518 13.766 67.8354C13.7528 67.819 13.7431 67.8 13.7375 67.7797C13.7319 67.7594 13.7305 67.7382 13.7335 67.7173C13.7364 67.6965 13.7436 67.6764 13.7546 67.6585C13.764 67.6364 13.7755 67.6154 13.7892 67.5957C13.7964 67.5807 13.8059 67.5669 13.8174 67.5549L13.8457 67.5203C13.8682 67.4917 13.9007 67.4726 13.9367 67.467C13.9802 67.4604 14.0247 67.4693 14.0623 67.4921C14.1471 67.5454 14.2036 67.558 14.2256 67.5266C14.236 67.5117 14.2425 67.4945 14.2444 67.4764C14.2427 67.4635 14.2381 67.4513 14.231 67.4404C14.224 67.4296 14.2146 67.4204 14.2036 67.4136C14.1914 67.4027 14.1768 67.3948 14.161 67.3904C14.1452 67.3861 14.1286 67.3854 14.1126 67.3885C14.0885 67.391 14.0643 67.391 14.0403 67.3885C13.9921 67.3979 13.9421 67.3901 13.8991 67.3665C13.8784 67.357 13.8593 67.3443 13.8425 67.3288C13.8189 67.3119 13.7986 67.2906 13.7829 67.266C13.7666 67.2408 13.7579 67.2113 13.7578 67.1813C13.7595 67.1403 13.7738 67.1009 13.7986 67.0682C13.8133 67.0404 13.838 67.0191 13.8677 67.0086L13.9242 66.9897C14.0051 66.982 14.0867 66.9927 14.1628 67.0211C14.2448 67.0558 14.3219 67.1012 14.392 67.1561C14.5086 67.2273 14.5947 67.3392 14.6337 67.4701C14.6433 67.5206 14.6419 67.5726 14.6294 67.6225C14.6169 67.6723 14.5938 67.7189 14.5615 67.7589C14.5372 67.795 14.5057 67.8256 14.4689 67.8489C14.4322 67.8721 14.391 67.8874 14.348 67.8939C14.2543 67.9052 14.1594 67.8889 14.0749 67.8468L14.0529 67.8751C13.9859 67.9316 13.9074 67.9253 13.8174 67.8563L13.8143 67.8751Z" fill="#238B36"/>
<path d="M14.9163 69.4164C14.939 69.3774 14.9698 69.3438 15.0066 69.3178C15.0435 69.2918 15.0855 69.274 15.1298 69.2657C15.1735 69.2555 15.2187 69.2541 15.263 69.2616C15.3072 69.2692 15.3494 69.2855 15.3872 69.3096L15.45 69.3505C15.5119 69.3859 15.5612 69.4397 15.5913 69.5043C15.6172 69.5697 15.6341 69.6384 15.6415 69.7084L15.8236 71.8747L16.6839 70.5247C16.7062 70.486 16.7365 70.4526 16.7728 70.4266C16.8091 70.4007 16.8505 70.3827 16.8942 70.374C16.9376 70.3643 16.9825 70.3634 17.0262 70.3715C17.0699 70.3796 17.1115 70.3965 17.1485 70.4211C17.2244 70.4688 17.2785 70.5443 17.2992 70.6314C17.3089 70.6748 17.3098 70.7197 17.3017 70.7634C17.2936 70.8071 17.2767 70.8487 17.2522 70.8857L15.9241 72.9704C15.9002 73.0083 15.8689 73.0411 15.8322 73.0669C15.7955 73.0927 15.7541 73.1109 15.7103 73.1205C15.6665 73.1302 15.6212 73.131 15.5771 73.123C15.5329 73.115 15.4908 73.0984 15.4532 73.074H15.4343C15.3729 73.0367 15.3238 72.9821 15.293 72.917C15.2657 72.8521 15.2488 72.7832 15.2428 72.713L15.0513 70.4682L14.1597 71.8716C14.1366 71.9096 14.1061 71.9426 14.07 71.9685C14.0339 71.9945 13.9928 72.0128 13.9494 72.0225C13.906 72.0322 13.8611 72.033 13.8174 72.0249C13.7736 72.0167 13.732 71.9998 13.695 71.9752C13.657 71.9521 13.624 71.9216 13.598 71.8855C13.5721 71.8494 13.5537 71.8084 13.544 71.7649C13.5344 71.7215 13.5336 71.6766 13.5417 71.6329C13.5498 71.5892 13.5667 71.5475 13.5914 71.5105L14.9163 69.4164Z" fill="#238B36"/>
<path d="M18.6681 71.6834C18.6877 71.6428 18.7154 71.6066 18.7494 71.5769C18.7834 71.5473 18.823 71.5248 18.8659 71.5107C18.9068 71.4921 18.9512 71.4824 18.9961 71.4824C19.0411 71.4824 19.0855 71.4921 19.1264 71.5107C19.2078 71.5514 19.2698 71.6224 19.2991 71.7085C19.3149 71.7508 19.3213 71.7959 19.3181 71.8409C19.3148 71.8858 19.3019 71.9296 19.2803 71.9691L18.8784 72.7885L20.0087 73.3474L20.4074 72.5405C20.448 72.4592 20.5191 72.3971 20.6052 72.3678C20.6695 72.343 20.7398 72.3381 20.8069 72.3539C20.874 72.3697 20.9348 72.4054 20.9813 72.4563C21.0277 72.5072 21.0578 72.5709 21.0674 72.6392C21.0771 72.7074 21.0659 72.777 21.0353 72.8388L19.9427 75.0616C19.9021 75.143 19.831 75.205 19.7449 75.2343C19.681 75.256 19.612 75.2583 19.5467 75.2409C19.4815 75.2235 19.4228 75.1871 19.3781 75.1364C19.3335 75.0857 19.3048 75.023 19.2958 74.956C19.2868 74.8891 19.2978 74.8209 19.3274 74.7602L19.7387 73.9219L18.6084 73.3662L18.1971 74.2045C18.1781 74.245 18.151 74.2812 18.1175 74.3109C18.0841 74.3406 18.0449 74.3631 18.0025 74.3772C17.9165 74.4056 17.8228 74.3988 17.7419 74.3583C17.7009 74.3401 17.6642 74.3133 17.6344 74.2797C17.6046 74.2462 17.5824 74.2066 17.5692 74.1637C17.5514 74.122 17.5422 74.0772 17.5422 74.0318C17.5422 73.9865 17.5514 73.9417 17.5692 73.9L18.6681 71.6834Z" fill="#238B36"/>
<path d="M21.861 76.2546C21.6486 76.1746 21.4543 76.0529 21.2896 75.8967C21.1375 75.7521 21.0149 75.5793 20.9285 75.3881C20.8439 75.2016 20.799 74.9995 20.7967 74.7947C20.7904 74.5798 20.8289 74.366 20.9097 74.1668C20.9864 73.9665 21.1028 73.7839 21.2519 73.6299C21.3969 73.4829 21.5684 73.3646 21.7574 73.2814C21.9561 73.197 22.1694 73.1523 22.3853 73.1495C22.6122 73.1476 22.8373 73.1903 23.0478 73.2751C23.2542 73.3502 23.4437 73.4655 23.6053 73.6142C23.767 73.7629 23.8976 73.9422 23.9896 74.1416C24.0742 74.3283 24.1201 74.5302 24.1246 74.735C24.1294 74.9498 24.091 75.1633 24.0116 75.3629C23.935 75.563 23.8174 75.7448 23.6663 75.8967C23.522 76.0453 23.3503 76.1647 23.1608 76.2483C22.9622 76.3331 22.7488 76.3779 22.5329 76.3802C22.3028 76.3837 22.0743 76.341 21.861 76.2546ZM22.0965 75.6706C22.2172 75.719 22.3464 75.7424 22.4764 75.7397C22.5965 75.739 22.7152 75.7133 22.8249 75.6643C22.9348 75.6109 23.0338 75.5375 23.1168 75.4477C23.2018 75.3557 23.2698 75.2494 23.3178 75.1338C23.3647 75.0136 23.3891 74.8859 23.39 74.757C23.3909 74.6333 23.3674 74.5106 23.3209 74.396C23.2532 74.2125 23.13 74.0548 22.9686 73.9445C22.8071 73.8342 22.6153 73.777 22.4198 73.7806C22.2986 73.7836 22.1795 73.8137 22.0714 73.8685C21.962 73.9214 21.8639 73.995 21.7825 74.0851C21.6955 74.1762 21.6263 74.2826 21.5784 74.3991C21.5313 74.5191 21.5068 74.6469 21.5062 74.7758C21.5051 74.8986 21.5286 75.0203 21.5753 75.1338C21.6207 75.2507 21.689 75.3575 21.7762 75.4477C21.8652 75.5432 21.9747 75.6173 22.0965 75.6643V75.6706ZM23.0949 73.0648C23.0542 73.051 23.0182 73.026 22.9913 72.9926C22.983 72.9777 22.9787 72.9609 22.9787 72.9439C22.9787 72.9269 22.983 72.9101 22.9913 72.8952C22.9987 72.876 23.0105 72.8588 23.0258 72.845C23.0402 72.8279 23.0571 72.813 23.076 72.801L23.4434 72.5342C23.4845 72.5038 23.5316 72.4824 23.5815 72.4714C23.6306 72.4562 23.6831 72.4562 23.7322 72.4714C23.7724 72.4874 23.8104 72.5085 23.8452 72.5342C23.8805 72.5602 23.9131 72.5896 23.9426 72.6221C23.9679 72.6497 23.9881 72.6816 24.0022 72.7163C24.0083 72.729 24.0115 72.743 24.0115 72.7571C24.0115 72.7712 24.0083 72.7852 24.0022 72.7979C23.9918 72.8266 23.9733 72.8518 23.9488 72.8701C23.9212 72.8879 23.8917 72.9026 23.8609 72.9141L23.5124 73.0553C23.4444 73.082 23.372 73.0959 23.2989 73.0962C23.2296 73.0975 23.1606 73.0869 23.0949 73.0648Z" fill="#238B36"/>
<path d="M23.7417 76.6057C23.7507 76.5825 23.7623 76.5604 23.7762 76.5398C23.7892 76.5169 23.805 76.4959 23.8233 76.477L25.5658 74.4488C25.6192 74.3814 25.6913 74.3312 25.773 74.3044C25.8543 74.2761 25.9428 74.2761 26.0242 74.3044H26.0618C26.1447 74.3255 26.2185 74.3728 26.2722 74.4394C26.3214 74.5092 26.3526 74.5901 26.3632 74.6749L26.6866 77.3404C26.6954 77.387 26.6954 77.435 26.6866 77.4816C26.6623 77.5656 26.6059 77.6367 26.5296 77.6794C26.4922 77.7003 26.4509 77.7134 26.4082 77.7177C26.3656 77.722 26.3225 77.7175 26.2816 77.7046C26.2121 77.6858 26.1511 77.6437 26.1089 77.5853C26.0694 77.5246 26.0437 77.456 26.0336 77.3843L25.9771 76.8569L24.6678 76.4644L24.3131 76.8883C24.2694 76.9416 24.2118 76.9818 24.1467 77.0044C24.0825 77.0257 24.0131 77.0257 23.9489 77.0044C23.9088 76.9926 23.8715 76.9729 23.8392 76.9465C23.8068 76.9201 23.7801 76.8875 23.7605 76.8506C23.7411 76.8131 23.7294 76.7721 23.7261 76.7301C23.7229 76.688 23.7282 76.6457 23.7417 76.6057ZM25.9111 76.207L25.795 75.1018L25.0854 75.9589L25.9111 76.207Z" fill="#238B36"/>
<path d="M28.8027 75.4481C28.8091 75.4035 28.825 75.3607 28.8494 75.3228C28.8737 75.2849 28.906 75.2526 28.944 75.2283C28.9803 75.2021 29.0216 75.1836 29.0653 75.1739C29.109 75.1642 29.1543 75.1634 29.1983 75.1718H29.2736C29.3382 75.1804 29.3986 75.2089 29.4463 75.2534C29.4898 75.295 29.524 75.3453 29.5468 75.401L30.1182 76.8703L31.1762 75.693C31.2142 75.6483 31.263 75.6142 31.318 75.5939C31.373 75.5735 31.4323 75.5677 31.4902 75.5768H31.5655C31.6101 75.5832 31.6529 75.5991 31.6908 75.6235C31.7287 75.6479 31.7609 75.6801 31.7853 75.7181C31.8113 75.7545 31.8297 75.7958 31.8395 75.8395C31.8492 75.8832 31.85 75.9284 31.8418 75.9724L31.3991 78.3993C31.3912 78.4437 31.3745 78.486 31.3502 78.524C31.3258 78.5619 31.2942 78.5946 31.2572 78.6203C31.2201 78.646 31.1784 78.6641 31.1343 78.6736C31.0902 78.683 31.0447 78.6837 31.0004 78.6756C30.9563 78.6688 30.9142 78.6526 30.8768 78.6283C30.8395 78.6039 30.8078 78.5719 30.7838 78.5343C30.7582 78.4971 30.7403 78.4552 30.7311 78.411C30.7219 78.3668 30.7217 78.3212 30.7304 78.2769L31.0067 76.7542L30.2532 77.5547C30.2137 77.5986 30.1656 77.6339 30.1119 77.6584C30.0579 77.6791 29.9992 77.6845 29.9423 77.6741C29.8862 77.6631 29.8341 77.6371 29.7916 77.5987C29.7508 77.5568 29.7178 77.5079 29.6943 77.4543L29.2767 76.4527L29.0005 77.9723C28.9936 78.0156 28.9778 78.0569 28.954 78.0937C28.9302 78.1304 28.899 78.1618 28.8623 78.1858C28.8262 78.2123 28.7848 78.2308 28.7409 78.24C28.6971 78.2492 28.6518 78.249 28.608 78.2392C28.5204 78.2237 28.4424 78.174 28.3914 78.101C28.3667 78.0646 28.3495 78.0237 28.3409 77.9805C28.3322 77.9374 28.3323 77.893 28.3411 77.8499L28.8027 75.4481Z" fill="#238B36"/>
<path d="M33.5937 79.0296C33.3676 79.011 33.1477 78.9469 32.9469 78.8413C32.761 78.7457 32.5956 78.6145 32.4603 78.4551C32.3272 78.2988 32.2268 78.1173 32.1652 77.9214C32.102 77.7185 32.0806 77.5048 32.1024 77.2934C32.1187 77.0801 32.1797 76.8726 32.2813 76.6844C32.381 76.5029 32.5129 76.3412 32.6707 76.2071C32.834 76.0732 33.0216 75.972 33.2232 75.9089C33.4408 75.8437 33.669 75.8213 33.8951 75.843C34.1213 75.8611 34.3413 75.9252 34.5419 76.0313C34.7293 76.126 34.8958 76.2573 35.0316 76.4175C35.1639 76.5751 35.2632 76.7577 35.3236 76.9544C35.3879 77.157 35.4103 77.3707 35.3895 77.5823C35.3702 77.7955 35.3083 78.0026 35.2074 78.1914C35.1091 78.3737 34.977 78.5356 34.8181 78.6686C34.6556 78.8031 34.4677 78.9035 34.2656 78.9637C34.0483 79.0304 33.8198 79.0528 33.5937 79.0296ZM33.6596 78.4017C33.7888 78.4157 33.9194 78.4018 34.0427 78.3609C34.159 78.3246 34.2661 78.2636 34.3566 78.1819C34.4459 78.0985 34.5193 77.9996 34.5733 77.89C34.6307 77.7763 34.6659 77.6527 34.6769 77.5258C34.6892 77.3971 34.6775 77.2672 34.6423 77.1427C34.6082 77.0287 34.5528 76.9222 34.4791 76.8288C34.4027 76.7323 34.3076 76.6523 34.1996 76.5933C34.0854 76.5312 33.9597 76.4928 33.8302 76.4804C33.7008 76.468 33.5701 76.4818 33.4461 76.5211C33.3297 76.5587 33.2226 76.6208 33.1322 76.7032C33.0404 76.7839 32.9657 76.8821 32.9124 76.992C32.8574 77.1075 32.8233 77.2319 32.8119 77.3594C32.7985 77.4869 32.8092 77.6157 32.8433 77.7393C32.8779 77.8537 32.9344 77.9604 33.0097 78.0532C33.0857 78.1497 33.1795 78.2307 33.286 78.2918C33.3987 78.3528 33.5226 78.3902 33.6502 78.4017H33.6596ZM33.1824 79.6576C33.1842 79.6148 33.1962 79.573 33.2176 79.5359C33.2389 79.4987 33.2688 79.4672 33.3049 79.4441C33.383 79.3938 33.4764 79.3727 33.5686 79.3844C33.6641 79.3895 33.755 79.4271 33.826 79.4912C33.8576 79.5203 33.8818 79.5566 33.8966 79.597C33.9113 79.6375 33.9162 79.6808 33.9108 79.7235C33.9071 79.7665 33.8936 79.8082 33.8713 79.8452C33.8489 79.8822 33.8184 79.9136 33.7821 79.937C33.7018 79.9877 33.6063 80.0088 33.5121 79.9966C33.4194 79.9915 33.3315 79.9537 33.264 79.8899C33.2331 79.8596 33.2097 79.8226 33.1955 79.7818C33.1814 79.7409 33.1769 79.6973 33.1824 79.6544V79.6576Z" fill="#238B36"/>
<path d="M35.9076 76.3329C35.9072 76.2878 35.9166 76.2431 35.935 76.202C35.9534 76.1608 35.9805 76.1241 36.0144 76.0943C36.047 76.0635 36.0855 76.0396 36.1276 76.024C36.1697 76.0084 36.2144 76.0013 36.2593 76.0032C36.3038 76.0033 36.3479 76.0129 36.3885 76.0313C36.4291 76.0497 36.4653 76.0765 36.4947 76.11C36.5272 76.1416 36.5524 76.1799 36.5686 76.2221C36.5849 76.2644 36.5918 76.3097 36.5889 76.3549L36.5136 78.8289C36.513 78.8738 36.5032 78.9182 36.4849 78.9592C36.4665 79.0002 36.4399 79.0371 36.4068 79.0675C36.3749 79.0994 36.3366 79.124 36.2943 79.1397C36.252 79.1554 36.2069 79.1618 36.1619 79.1585C36.1168 79.1589 36.0722 79.1496 36.031 79.1312C35.9898 79.1128 35.9531 79.0857 35.9233 79.0518C35.8909 79.0202 35.8657 78.9819 35.8494 78.9397C35.8332 78.8974 35.8262 78.8521 35.8291 78.8069L35.9076 76.3329Z" fill="#238B36"/>
<path d="M39.8729 79.137C39.6596 79.1486 39.4461 79.1177 39.2449 79.046C39.0524 78.9763 38.8754 78.8697 38.7238 78.732C38.5718 78.5946 38.449 78.4281 38.3627 78.2423C38.2711 78.0451 38.2199 77.8316 38.212 77.6143C38.1984 77.4015 38.2272 77.188 38.2968 76.9864C38.3661 76.7918 38.4727 76.6127 38.6107 76.459C38.7465 76.3028 38.9133 76.1766 39.1005 76.0885C39.3033 75.9892 39.5248 75.9336 39.7504 75.9252C39.951 75.9095 40.1528 75.9287 40.3469 75.9817C40.5079 76.0271 40.6612 76.0959 40.8022 76.1858C40.8425 76.2143 40.8767 76.2506 40.9026 76.2926C40.932 76.3398 40.9482 76.394 40.9497 76.4495C40.9534 76.4935 40.9477 76.5378 40.9331 76.5795C40.9185 76.6211 40.8953 76.6592 40.865 76.6913C40.8349 76.724 40.7986 76.7504 40.7581 76.7687C40.7177 76.7871 40.6739 76.797 40.6295 76.798C40.5891 76.8016 40.5483 76.7963 40.5102 76.7823L40.4223 76.7447C40.3253 76.6798 40.2196 76.6291 40.1083 76.594C39.9973 76.5619 39.8815 76.5491 39.7661 76.5563C39.6451 76.5609 39.5266 76.5913 39.4183 76.6455C39.31 76.6996 39.2145 76.7763 39.1382 76.8702C39.0622 76.9631 39.0047 77.0697 38.9687 77.1842C38.9276 77.3053 38.9115 77.4335 38.9216 77.561C38.9266 77.6896 38.9554 77.8163 39.0063 77.9346C39.0533 78.0508 39.1214 78.1572 39.2073 78.2485C39.2917 78.3324 39.3921 78.3986 39.5024 78.4432C39.6198 78.4906 39.7465 78.511 39.8729 78.5028C39.9995 78.4976 40.1241 78.4689 40.2402 78.4181C40.3454 78.3658 40.4435 78.3004 40.5322 78.2234C40.5864 78.1709 40.6577 78.1397 40.7331 78.1355C40.7762 78.1325 40.8194 78.1384 40.86 78.1528C40.9007 78.1672 40.9379 78.1899 40.9695 78.2193C41.001 78.2488 41.0261 78.2844 41.0432 78.324C41.0604 78.3636 41.0692 78.4063 41.069 78.4495C41.0712 78.4959 41.063 78.5422 41.0451 78.5851C41.0272 78.628 41 78.6664 40.9654 78.6975C40.8327 78.8274 40.6788 78.9336 40.5102 79.0115C40.3078 79.0939 40.0914 79.1365 39.8729 79.137Z" fill="#238B36"/>
<path d="M41.3014 76.1946C41.2938 76.1504 41.2958 76.1052 41.3072 76.0619C41.3185 76.0185 41.339 75.9781 41.3673 75.9434C41.3933 75.9065 41.4269 75.8756 41.4659 75.8528C41.505 75.83 41.5484 75.816 41.5934 75.8115C41.6839 75.8007 41.7751 75.8255 41.8477 75.8806C41.884 75.9069 41.9143 75.9407 41.9365 75.9797C41.9587 76.0187 41.9723 76.062 41.9764 76.1067L42.0957 77.014L43.3515 76.8476L43.2322 75.9403C43.2256 75.8961 43.2281 75.8511 43.2394 75.8079C43.2508 75.7647 43.2707 75.7243 43.2982 75.6891C43.3256 75.6529 43.36 75.6226 43.3994 75.5999C43.4387 75.5773 43.4823 75.5627 43.5274 75.5572C43.6169 75.5462 43.7072 75.5711 43.7785 75.6263C43.8155 75.6523 43.8464 75.6859 43.8691 75.7249C43.8919 75.7639 43.906 75.8074 43.9104 75.8524L44.2243 78.3075C44.2315 78.3519 44.229 78.3973 44.2171 78.4406C44.2052 78.4839 44.1841 78.5242 44.1553 78.5587C44.1293 78.5956 44.0957 78.6265 44.0566 78.6493C44.0176 78.672 43.9742 78.6861 43.9292 78.6905C43.8849 78.6977 43.8395 78.6952 43.7961 78.6833C43.7528 78.6714 43.7125 78.6503 43.6781 78.6215C43.6411 78.5955 43.6102 78.5619 43.5874 78.5228C43.5647 78.4838 43.5506 78.4404 43.5462 78.3954L43.4237 77.4724L42.1679 77.6388L42.2904 78.5618C42.2965 78.6062 42.2939 78.6513 42.2825 78.6946C42.2712 78.7379 42.2513 78.7786 42.2242 78.8142C42.197 78.8498 42.1631 78.8797 42.1243 78.9021C42.0856 78.9245 42.0428 78.9391 41.9984 78.9449C41.9535 78.9511 41.9079 78.9482 41.8642 78.9363C41.8205 78.9244 41.7796 78.9038 41.7441 78.8758C41.7077 78.8495 41.6774 78.8157 41.6552 78.7767C41.633 78.7377 41.6194 78.6944 41.6153 78.6497L41.3014 76.1946Z" fill="#238B36"/>
<path d="M46.2619 78.2731C46.0856 78.3289 45.899 78.3443 45.7159 78.3182C45.5328 78.2921 45.358 78.2252 45.2042 78.1224C45.0505 78.0196 44.9218 77.8835 44.8278 77.7243C44.7337 77.5651 44.6766 77.3868 44.6607 77.2025L44.3468 75.7772C44.337 75.7333 44.3361 75.6879 44.3442 75.6437C44.3523 75.5995 44.3692 75.5573 44.3939 75.5197C44.4172 75.481 44.4487 75.4477 44.4861 75.4223C44.5234 75.3968 44.5659 75.3797 44.6105 75.3722C44.6543 75.361 44.6999 75.3595 44.7444 75.3676C44.7888 75.3757 44.831 75.3933 44.868 75.4193C44.9059 75.4435 44.9386 75.4752 44.964 75.5124C44.9893 75.5497 45.0069 75.5917 45.0155 75.6359L45.3295 77.0456C45.3588 77.2504 45.4628 77.4371 45.6215 77.5699C45.7794 77.661 45.9653 77.6912 46.144 77.6547C46.3227 77.6183 46.4819 77.5178 46.5916 77.3721C46.6844 77.1906 46.7035 76.9803 46.645 76.785L46.331 75.3533C46.312 75.2647 46.3289 75.1721 46.3781 75.0959C46.4023 75.0579 46.434 75.0252 46.4713 74.9999C46.5085 74.9745 46.5505 74.957 46.5947 74.9483C46.6387 74.9387 46.6841 74.9379 46.7283 74.9459C46.7726 74.954 46.8148 74.9708 46.8525 74.9954C46.8902 75.0199 46.9226 75.0517 46.9479 75.0889C46.9732 75.1261 46.9908 75.168 46.9997 75.212L47.298 76.6186C47.3475 76.824 47.3603 77.0366 47.3357 77.2465C47.3131 77.4186 47.2531 77.5836 47.1599 77.73C47.0655 77.8717 46.9398 77.9899 46.7925 78.0754C46.6283 78.1712 46.4488 78.2381 46.2619 78.2731Z" fill="#238B36"/>
<path d="M48.6637 76.3929L47.3168 75.3694C47.2845 75.3433 47.255 75.3138 47.2289 75.2815C47.2016 75.2447 47.1814 75.2032 47.1693 75.159C47.1563 75.1175 47.1521 75.0737 47.157 75.0305C47.1619 74.9872 47.1757 74.9455 47.1975 74.9079C47.2194 74.8685 47.2491 74.8341 47.2847 74.8066C47.3203 74.779 47.3612 74.759 47.4047 74.7477C47.4699 74.7257 47.5405 74.7257 47.6057 74.7477C47.6711 74.7712 47.7317 74.8063 47.7846 74.8514L48.8144 75.6833L49.2445 74.4275C49.2637 74.3603 49.2957 74.2974 49.3387 74.2423C49.3809 74.1914 49.438 74.1552 49.502 74.1387C49.5444 74.1234 49.5897 74.1174 49.6347 74.1212C49.6796 74.125 49.7233 74.1385 49.7626 74.1606C49.8005 74.1823 49.8335 74.2116 49.8594 74.2468C49.8854 74.2819 49.9037 74.3221 49.9133 74.3647C49.9226 74.4082 49.9226 74.4531 49.9133 74.4966C49.908 74.5386 49.8975 74.5797 49.8819 74.619L49.301 76.1888L49.5554 77.0491C49.5806 77.1361 49.5704 77.2296 49.5268 77.309C49.4833 77.3885 49.41 77.4474 49.323 77.4729C49.2801 77.4873 49.2346 77.4922 49.1896 77.4873C49.1447 77.4824 49.1013 77.4679 49.0624 77.4447C49.0222 77.4244 48.9867 77.3956 48.9586 77.3604C48.9304 77.3252 48.9101 77.2843 48.8992 77.2406L48.6637 76.3929Z" fill="#238B36"/>
<path d="M51.4297 76.7793C51.3462 76.8136 51.2525 76.8136 51.1691 76.7793C51.1283 76.7609 51.0917 76.7345 51.0615 76.7016C51.0313 76.6686 51.0081 76.6299 50.9933 76.5878L50.1519 74.3147C50.1363 74.2728 50.1292 74.2283 50.1309 74.1837C50.1325 74.1391 50.143 74.0953 50.1617 74.0548C50.1804 74.0142 50.2069 73.9777 50.2396 73.9475C50.2724 73.9172 50.3109 73.8937 50.3528 73.8783L51.9665 73.2786C52.0036 73.2623 52.0437 73.2538 52.0843 73.2538C52.1248 73.2538 52.1649 73.2623 52.202 73.2786C52.2752 73.3146 52.3315 73.3777 52.359 73.4544C52.3753 73.491 52.3837 73.5306 52.3837 73.5706C52.3837 73.6106 52.3753 73.6502 52.359 73.6868C52.3424 73.7229 52.3184 73.7552 52.2887 73.7817C52.259 73.8082 52.2241 73.8282 52.1863 73.8406L50.8897 74.3241L51.1063 74.9143L52.2177 74.5031C52.2548 74.4867 52.2949 74.4783 52.3354 74.4783C52.376 74.4783 52.4161 74.4867 52.4532 74.5031C52.5254 74.5384 52.5813 74.6002 52.6093 74.6755C52.6373 74.7509 52.6354 74.8341 52.6039 74.9081C52.5679 74.9812 52.5048 75.0375 52.4281 75.065L51.3198 75.4763L51.5458 76.1043L52.8645 75.6145C52.94 75.5839 53.0244 75.5839 53.0999 75.6145C53.1368 75.6306 53.1698 75.6543 53.1969 75.6841C53.2239 75.7138 53.2444 75.7489 53.2569 75.7872C53.274 75.8235 53.2828 75.8632 53.2828 75.9033C53.2828 75.9435 53.274 75.9831 53.2569 76.0195C53.2403 76.056 53.2164 76.0888 53.1868 76.1158C53.1571 76.1428 53.1222 76.1634 53.0842 76.1765L51.4297 76.7793ZM50.8017 73.3257C50.762 73.3944 50.7111 73.4559 50.651 73.5078C50.595 73.5484 50.5338 73.5811 50.469 73.6051C50.4344 73.6173 50.3967 73.6173 50.3622 73.6051C50.3462 73.6028 50.3312 73.596 50.319 73.5854C50.3067 73.5748 50.2978 73.561 50.2931 73.5455C50.2868 73.524 50.2868 73.5011 50.2931 73.4795C50.2931 73.4502 50.2994 73.4251 50.312 73.4042L50.4501 72.9678C50.4678 72.9139 50.4955 72.8638 50.5317 72.8202C50.5758 72.7731 50.6308 72.7375 50.6919 72.7166L50.8928 72.6444C50.9518 72.618 51.017 72.6082 51.0812 72.6162C51.1369 72.6257 51.1902 72.646 51.2382 72.6758L51.6275 72.9144L51.6903 72.9615C51.7098 72.9733 51.7251 72.9909 51.7342 73.0118C51.7402 73.0274 51.7419 73.0444 51.7392 73.061C51.7364 73.0775 51.7293 73.0931 51.7185 73.1059C51.6928 73.1336 51.6603 73.1541 51.6243 73.1656C51.5604 73.1923 51.4925 73.2082 51.4234 73.2127C51.3442 73.2124 51.2656 73.1986 51.1911 73.1719L50.9368 73.0808L50.8017 73.3257ZM51.505 72.5691C51.464 72.5809 51.4205 72.5809 51.3794 72.5691C51.3624 72.5662 51.3465 72.5589 51.3333 72.5479C51.32 72.5368 51.31 72.5225 51.3041 72.5063C51.2993 72.4856 51.2993 72.4641 51.3041 72.4435C51.301 72.4216 51.301 72.3994 51.3041 72.3776L51.3983 71.9349C51.4071 71.8833 51.4287 71.8347 51.4611 71.7936C51.4931 71.7536 51.5354 71.7232 51.5835 71.7057C51.6245 71.6926 51.6665 71.6832 51.7091 71.6774C51.7529 71.6726 51.7971 71.6726 51.841 71.6774C51.8775 71.6827 51.9133 71.6922 51.9477 71.7057C51.9614 71.7107 51.9738 71.7186 51.9841 71.7289C51.9944 71.7392 52.0023 71.7517 52.0074 71.7653C52.0151 71.7941 52.0151 71.8244 52.0074 71.8532C51.9969 71.8844 51.9843 71.9149 51.9697 71.9443L51.8033 72.2802C51.7717 72.3472 51.7268 72.407 51.6714 72.456C51.6164 72.4997 51.555 72.5347 51.4893 72.5597L51.505 72.5691Z" fill="#238B36"/>
<path d="M52.7075 73.3318C52.6897 73.2901 52.6805 73.2453 52.6805 73.2C52.6805 73.1546 52.6897 73.1098 52.7075 73.0681C52.7397 72.9832 52.804 72.9144 52.8865 72.8766L52.9524 72.8483C53.0161 72.8152 53.0886 72.8031 53.1596 72.8138C53.2282 72.8267 53.2948 72.8489 53.3574 72.8797L55.2757 73.9032L54.607 72.4496C54.5726 72.3661 54.5726 72.2725 54.607 72.189C54.6223 72.1475 54.6457 72.1094 54.6759 72.077C54.706 72.0446 54.7422 72.0184 54.7825 72.0001C54.8227 71.9817 54.8662 71.9714 54.9105 71.9699C54.9547 71.9684 54.9988 71.9756 55.0402 71.9912C55.0823 72.0055 55.1208 72.0286 55.1533 72.0589C55.1858 72.0892 55.2114 72.1261 55.2286 72.167L56.2615 74.4118C56.2961 74.4964 56.2961 74.5911 56.2615 74.6756C56.2473 74.7185 56.2239 74.7578 56.193 74.7909C56.1621 74.824 56.1244 74.8499 56.0826 74.8671H56.0637C55.9998 74.8996 55.9278 74.9127 55.8565 74.9048C55.7866 74.8912 55.719 74.868 55.6556 74.8357L53.6557 73.7808L54.3495 75.2909C54.3677 75.3314 54.3771 75.3753 54.3771 75.4197C54.3771 75.464 54.3677 75.5079 54.3495 75.5484C54.334 75.5903 54.3101 75.6286 54.2794 75.6609C54.2486 75.6933 54.2116 75.7191 54.1706 75.7368C54.1301 75.7549 54.0862 75.7644 54.0418 75.7644C53.9975 75.7644 53.9536 75.7549 53.9131 75.7368C53.8711 75.7224 53.8325 75.6994 53.8001 75.6691C53.7676 75.6388 53.7419 75.6019 53.7247 75.5609L52.7075 73.3318Z" fill="#238B36"/>
<path d="M57.4828 72.688C57.4559 72.7061 57.4254 72.718 57.3934 72.7228C57.3613 72.7277 57.3286 72.7255 57.2976 72.7162C57.2663 72.7092 57.2368 72.6958 57.2109 72.6769C57.185 72.658 57.1632 72.634 57.1469 72.6064C57.1111 72.5494 57.0987 72.4807 57.1124 72.4148C57.1189 72.3829 57.132 72.3527 57.1509 72.3262C57.1699 72.2997 57.1942 72.2775 57.2222 72.261L57.2945 72.217L56.7827 71.3662C56.7362 71.2877 56.7227 71.1941 56.745 71.1056C56.7555 71.0622 56.7745 71.0212 56.8009 70.9851C56.8273 70.949 56.8606 70.9185 56.8989 70.8953L57.6461 70.4463C57.8392 70.3287 58.0519 70.2468 58.274 70.2046C58.4812 70.1623 58.6948 70.1623 58.9019 70.2046C59.0976 70.2487 59.2824 70.332 59.4451 70.4495C59.6137 70.573 59.7548 70.7301 59.8595 70.911C59.9693 71.0904 60.0419 71.2901 60.073 71.4981C60.1015 71.6974 60.0887 71.9005 60.0353 72.0946C59.9787 72.2951 59.8838 72.4827 59.7559 72.6472C59.6155 72.8273 59.4418 72.9786 59.2441 73.093L58.5001 73.542C58.4623 73.5663 58.4198 73.5822 58.3754 73.5887C58.331 73.5952 58.2857 73.5921 58.2426 73.5796C58.1986 73.5705 58.157 73.5521 58.1207 73.5256C58.0844 73.499 58.0543 73.465 58.0323 73.4258L57.555 72.6315L57.4828 72.688ZM57.8721 71.8686L58.2144 71.6645C58.2426 71.6468 58.2742 71.6352 58.3072 71.6303C58.3401 71.6255 58.3737 71.6275 58.4059 71.6362C58.4381 71.645 58.4683 71.6601 58.4947 71.6806C58.5211 71.701 58.5432 71.7265 58.5597 71.7555C58.5772 71.7827 58.5888 71.8132 58.5936 71.8451C58.5985 71.877 58.5966 71.9096 58.588 71.9408C58.5713 72.0038 58.5307 72.0578 58.4749 72.0915L58.1327 72.2987L58.4687 72.8575L58.927 72.5812C59.0396 72.5145 59.1395 72.4284 59.2222 72.3269C59.2949 72.2343 59.3474 72.1273 59.376 72.013C59.3981 71.8968 59.3981 71.7775 59.376 71.6613C59.3534 71.5347 59.3076 71.4134 59.241 71.3034C59.176 71.1914 59.0896 71.0932 58.9867 71.0146C58.8938 70.9415 58.787 70.888 58.6727 70.8576C58.5557 70.8339 58.435 70.8339 58.318 70.8576C58.1901 70.8808 58.0676 70.9277 57.9569 70.9957L57.4985 71.272L57.8721 71.8686Z" fill="#238B36"/>
<path d="M59.5518 69.6145C59.5248 69.578 59.5061 69.536 59.4969 69.4916C59.4877 69.4471 59.4882 69.4012 59.4985 69.357C59.5152 69.268 59.5666 69.1892 59.6414 69.138C59.7161 69.0868 59.8081 69.0673 59.8972 69.0839C59.9417 69.0917 59.9842 69.1086 60.0219 69.1335C60.0597 69.1583 60.0921 69.1906 60.117 69.2283L61.5141 71.2722C61.5395 71.3092 61.5574 71.3509 61.5666 71.3948C61.5758 71.4388 61.5761 71.4841 61.5677 71.5282C61.5592 71.5724 61.542 71.6143 61.5172 71.6518C61.4924 71.6892 61.4604 71.7213 61.423 71.7462C61.386 71.7717 61.3443 71.7895 61.3004 71.7987C61.2564 71.8079 61.2111 71.8083 61.167 71.7998C61.1228 71.7914 61.0809 71.7742 61.0434 71.7494C61.006 71.7246 60.9739 71.6925 60.9489 71.6552L59.5518 69.6145Z" fill="#238B36"/>
<path d="M76.1446 52.7891C75.5166 52.7891 73.4853 54.001 70.1542 57.4295L69.1244 58.4938L66.9707 57.6681L67.3349 57.2913C67.3782 57.2484 67.4127 57.1973 67.4362 57.141C67.4597 57.0847 67.4718 57.0242 67.4718 56.9632C67.4718 56.9022 67.4597 56.8418 67.4362 56.7855C67.4127 56.7291 67.3782 56.6781 67.3349 56.6351L67.1214 56.4248C67.0362 56.3446 66.9244 56.2988 66.8074 56.2961C66.7448 56.2958 66.6827 56.3081 66.625 56.3324C66.5673 56.3567 66.5151 56.3924 66.4715 56.4373L65.7431 57.1877C64.2612 56.6163 62.8986 56.0888 62.4779 55.9162C62.0517 55.7401 61.5953 55.6484 61.1342 55.6462C60.5062 55.6462 60.0824 55.8251 60.0667 55.979C60.0447 56.1893 64.9142 59.0997 67.0963 60.5973L64.459 63.3162C64.0155 63.7916 63.6307 64.3187 63.313 64.886C62.3492 64.6474 61.0463 64.3271 60.7511 64.2581C60.6254 64.2231 60.4954 64.2062 60.365 64.2078C59.9443 64.2078 59.5895 64.3742 59.5644 64.4716C59.5392 64.5689 62.525 66.4275 62.8264 66.7729C63.178 67.0617 65.0712 69.9659 65.2188 69.9659C65.3475 69.9313 65.5735 69.3379 65.4009 68.7728C65.3098 68.484 64.9519 67.1873 64.685 66.2329C65.237 65.8966 65.748 65.4973 66.2077 65.043L68.845 62.3272C70.4148 64.4559 73.4414 69.2186 73.6643 69.2186C73.9186 69.1872 74.198 68.0224 73.6643 66.8043C73.4822 66.393 72.9139 65.043 72.3017 63.5799L73.0301 62.8296C73.0736 62.7864 73.1081 62.735 73.1316 62.6784C73.1552 62.6219 73.1673 62.5612 73.1673 62.4999C73.1673 62.4386 73.1552 62.3779 73.1316 62.3214C73.1081 62.2648 73.0736 62.2134 73.0301 62.1702L72.8166 61.963C72.7737 61.9196 72.7226 61.8852 72.6663 61.8617C72.61 61.8382 72.5495 61.8261 72.4885 61.8261C72.4275 61.8261 72.3671 61.8382 72.3107 61.8617C72.2544 61.8852 72.2033 61.9196 72.1604 61.963L71.7931 62.3398C71.4791 61.5549 71.1652 60.8045 70.9077 60.2111L71.9375 59.1499C75.6768 55.3008 76.672 53.1847 76.3329 52.8708C76.3093 52.8443 76.2802 52.8233 76.2477 52.8093C76.2152 52.7952 76.18 52.7883 76.1446 52.7891Z" fill="#238B36"/>
<path d="M88.8223 52.9711C86.9762 52.9711 85.6795 52.0628 84.9323 50.246L74.7852 25.9675C74.6685 25.7059 74.5709 25.4363 74.4932 25.1606C74.4166 24.8846 74.3785 24.5994 74.3801 24.3129C74.3713 23.8626 74.4563 23.4153 74.6298 22.9996C74.8033 22.5839 75.0615 22.209 75.388 21.8986C75.7068 21.5788 76.087 21.3267 76.5056 21.1573C76.9242 20.9879 77.3728 20.9047 77.8243 20.9127C78.62 20.8819 79.4019 21.127 80.0377 21.6066C80.6093 22.056 81.0504 22.65 81.3155 23.3271L89.1394 43.5838L97.0543 23.1042C97.3227 22.5021 97.7411 21.9789 98.2693 21.5846C98.8726 21.126 99.6154 20.8887 100.373 20.9127C100.817 20.9029 101.26 20.9811 101.674 21.1427C102.088 21.3044 102.467 21.5463 102.787 21.8546C103.109 22.1582 103.362 22.5264 103.532 22.9348C103.701 23.3433 103.782 23.783 103.77 24.225C103.769 24.4979 103.731 24.7694 103.657 25.0319C103.593 25.2752 103.511 25.5134 103.412 25.7446L93.1612 50.2334C92.414 52.0523 91.1173 52.9607 89.2712 52.9586L88.8223 52.9711Z" fill="#238B36"/>
<path d="M106.191 24.4449C106.188 23.9906 106.275 23.5402 106.447 23.1199C106.62 22.6995 106.874 22.3177 107.196 21.9964C107.517 21.6751 107.899 21.4208 108.319 21.2483C108.739 21.0758 109.19 20.9885 109.644 20.9914H110.36C111.082 20.9681 111.793 21.1676 112.397 21.5628C112.971 21.9716 113.483 22.4612 113.917 23.0164L127.198 40.4537V24.3131C127.184 23.8581 127.261 23.4049 127.426 22.9805C127.591 22.5561 127.839 22.169 128.156 21.8423C128.473 21.5155 128.852 21.2558 129.271 21.0784C129.69 20.901 130.141 20.8096 130.596 20.8096C131.051 20.8096 131.502 20.901 131.921 21.0784C132.34 21.2558 132.72 21.5155 133.037 21.8423C133.354 22.169 133.602 22.5561 133.766 22.9805C133.931 23.4049 134.009 23.8581 133.995 24.3131V49.2163C133.995 50.1323 133.631 51.0107 132.983 51.6584C132.336 52.306 131.457 52.6699 130.541 52.6699H130.318C129.592 52.6991 128.874 52.504 128.262 52.111C127.688 51.7022 127.176 51.2126 126.742 50.6574L112.969 32.5922V49.3607C112.969 50.2617 112.611 51.1257 111.974 51.7628C111.337 52.3999 110.473 52.7578 109.572 52.7578C108.671 52.7578 107.807 52.3999 107.17 51.7628C106.533 51.1257 106.175 50.2617 106.175 49.3607L106.191 24.4449Z" fill="#238B36"/>
</g>
<defs>
<clipPath id="clip0_1024_1424">
<rect width="134.001" height="80" fill="white"/>
</clipPath>
</defs>
</svg>
