<svg xmlns="http://www.w3.org/2000/svg" viewBox="0 0 426.81 254.81"><defs><style>.cls-1{fill:#bedaa8;}.cls-2{fill:#fff;}</style></defs><g id="Layer_2" data-name="Layer 2"><g id="Layer_1-2" data-name="Layer 1"><path class="cls-1" d="M185.26,204.17c.74-3,4-4.29,7-4.29a9,9,0,0,1,2.44.33c.32.08,1.38.36,4.91,1.23a26.82,26.82,0,0,1,2.43-2.93l4.6-4.73c-2.2-1.41-4.64-3-7-4.47-2.85-1.8-5.55-3.51-7.56-4.83-3.57-2.34-5.54-3.64-5.25-6.62.31-3.18,3.34-5.15,7.92-5.15a16,16,0,0,1,6,1.2c.65.27,2.51,1,7.5,2.93l.24-.24a6.06,6.06,0,0,1,4.32-1.83,6,6,0,0,1,4.19,1.7l.68.66a6.16,6.16,0,0,1,1,1.22,116.28,116.28,0,0,0,16.81-48.24h-8.79a6.79,6.79,0,0,1-6.79-6.8v-1.06a6.79,6.79,0,0,1,6.79-6.79h9.54A116.85,116.85,0,0,0,128,.21V9.42a6.8,6.8,0,0,1-6.8,6.79H120.1a6.79,6.79,0,0,1-6.79-6.79V0A116.87,116.87,0,0,0,2.41,115.46H12a6.79,6.79,0,0,1,6.79,6.79v1.06a6.79,6.79,0,0,1-6.79,6.8H3.16A116.88,116.88,0,0,0,113.31,233.46V224a6.79,6.79,0,0,1,6.79-6.79h1.06A6.8,6.8,0,0,1,128,224v9.22a116.18,116.18,0,0,0,61-22.78l-.47-.32C186.92,209,184.48,207.35,185.26,204.17Z"/><path class="cls-2" d="M0,156.76q0-6.54,5.7-11L34,122.58q4.7-3.84,8-6.9a47.6,47.6,0,0,0,5.34-5.77,19.23,19.23,0,0,0,3-5.41,17.87,17.87,0,0,0,.93-5.84c0-4.28-1.24-7.5-3.7-9.69a14.1,14.1,0,0,0-9.69-3.27,17,17,0,0,0-8.4,2.06,32.39,32.39,0,0,0-7.83,6.62,12.43,12.43,0,0,1-3,2.14,9.16,9.16,0,0,1-4.42,1,9.6,9.6,0,0,1-7-2.92,9.6,9.6,0,0,1-2.92-7,10.24,10.24,0,0,1,2.57-6.84A44.1,44.1,0,0,1,20.36,69.89q7.56-3.84,19-3.85a42.42,42.42,0,0,1,14,2.21,31.77,31.77,0,0,1,10.83,6.2,27.5,27.5,0,0,1,7,9.68,31.33,31.33,0,0,1,2.5,12.68v.28A35.35,35.35,0,0,1,72,108.27a33.49,33.49,0,0,1-4.84,9.26A55.33,55.33,0,0,1,59,126.21q-5,4.35-11.54,9.47L31.19,148.22H65.94a9.48,9.48,0,0,1,9.54,9.54,9,9,0,0,1-2.78,6.69,9.31,9.31,0,0,1-6.76,2.71H11.82a13,13,0,0,1-8.47-2.71A9.28,9.28,0,0,1,0,156.76Z"/><path class="cls-2" d="M126.57,145.65h-41A10.84,10.84,0,0,1,78,142.8a9.35,9.35,0,0,1-3.13-7.26,14.42,14.42,0,0,1,1.35-6.26,26,26,0,0,1,3.78-5.7L123.3,73.31a28.73,28.73,0,0,1,6-5.56A14,14,0,0,1,137,65.9a10.32,10.32,0,0,1,7.48,3,10,10,0,0,1,3.06,7.41v51.55h5.27a9,9,0,0,1,9,9,8.44,8.44,0,0,1-2.63,6.27,8.76,8.76,0,0,1-6.34,2.56h-5.27v12a9.93,9.93,0,0,1-3.06,7.4,10.32,10.32,0,0,1-7.48,3,10.23,10.23,0,0,1-10.4-10.39Zm0-17.8v-31l-26.48,31Z"/><path class="cls-2" d="M167.68,158.19a12,12,0,0,1,.56-3.35,18.06,18.06,0,0,1,1.43-3.49l37-64.94H168.53a9.29,9.29,0,0,1-6.76-2.71A8.93,8.93,0,0,1,159,77a9.49,9.49,0,0,1,9.54-9.54h54.12A10.12,10.12,0,0,1,229.91,70q2.7,2.56,2.7,7.27a18.32,18.32,0,0,1-.85,5.26A27,27,0,0,1,229.48,88l-40,72.63a15.39,15.39,0,0,1-4.69,5.69,10.29,10.29,0,0,1-5.84,1.71,12.71,12.71,0,0,1-7.84-2.56A8.56,8.56,0,0,1,167.68,158.19Z"/><path class="cls-2" d="M3.54,179.08a.77.77,0,0,1-.09-.59.76.76,0,0,1,.37-.47.78.78,0,0,1,.61-.1.75.75,0,0,1,.49.36l.13.23,2.73-1.6a1.09,1.09,0,0,1,1.49.39l1.4,2.4a5.76,5.76,0,0,1,.74,2,5.19,5.19,0,0,1-.05,2,4.69,4.69,0,0,1-.81,1.72,4.79,4.79,0,0,1-1.48,1.3l0,0a4.86,4.86,0,0,1-1.87.65,4.66,4.66,0,0,1-1.9-.14,5.18,5.18,0,0,1-1.75-.92,5.79,5.79,0,0,1-1.4-1.64L.73,182.29a1.05,1.05,0,0,1-.11-.83,1,1,0,0,1,.5-.66l2.55-1.49Zm2.59,1.28.64,1.1a.76.76,0,0,1,.08.61.82.82,0,0,1-.39.49.71.71,0,0,1-.59.07.76.76,0,0,1-.48-.36l-.64-1.1-1.79,1,.86,1.48a3.35,3.35,0,0,0,.79.94,2.57,2.57,0,0,0,1,.51,2.8,2.8,0,0,0,1.12.05,3.08,3.08,0,0,0,1.14-.41l0,0a3.08,3.08,0,0,0,.92-.79,2.7,2.7,0,0,0,.57-2.12A3.25,3.25,0,0,0,9,180.69l-.86-1.48Z"/><path class="cls-2" d="M8.45,194.86a5.47,5.47,0,0,1-.89-2,5.3,5.3,0,0,1-.07-2,5.11,5.11,0,0,1,.69-1.82,5.39,5.39,0,0,1,1.4-1.46h0a4.87,4.87,0,0,1,1.85-.82,5.17,5.17,0,0,1,2-.05,5.24,5.24,0,0,1,3.4,2.23c.11.15.21.31.31.47s.17.34.25.51.12.17.2.3l.27.39.23.35.11.16a1.59,1.59,0,0,0,.31.32.45.45,0,0,0,.25.09.46.46,0,0,0,.23-.08l.26-.17a.77.77,0,0,1,.59-.17,1,1,0,0,1,.55.45.72.72,0,0,1-.16,1.14,2.42,2.42,0,0,1-1.26.5,1.61,1.61,0,0,1-1.16-.55,5.25,5.25,0,0,1-.67,2,4.82,4.82,0,0,1-1.45,1.54l0,0a5,5,0,0,1-1.85.82,5.17,5.17,0,0,1-2,0,5.09,5.09,0,0,1-1.86-.73A5.31,5.31,0,0,1,8.45,194.86Zm1.65-1.14a3,3,0,0,0,.89.85,2.69,2.69,0,0,0,1.08.38,3.19,3.19,0,0,0,2.26-.58h0a3.55,3.55,0,0,0,.86-.87,3.18,3.18,0,0,0,.45-1.08,3.29,3.29,0,0,0,0-1.17,2.93,2.93,0,0,0-.49-1.12,3,3,0,0,0-.9-.85,2.85,2.85,0,0,0-1.08-.38,3.19,3.19,0,0,0-2.25.58h0a3.27,3.27,0,0,0-.86.88,3.05,3.05,0,0,0-.45,1.07,2.83,2.83,0,0,0,0,1.16A2.89,2.89,0,0,0,10.1,193.72Z"/><path class="cls-2" d="M19.58,194.84a1.06,1.06,0,0,1,.8-.25,1,1,0,0,1,.74.38l.14.18a1.11,1.11,0,0,1,.29.61,2.57,2.57,0,0,1-.05.66L20,203.18l3.91-3.28a1,1,0,0,1,.78-.26,1.06,1.06,0,0,1,.73.39,1.07,1.07,0,0,1-.13,1.51l-6,5.06a1.08,1.08,0,0,1-1.54-.13l0-.05a1.18,1.18,0,0,1-.29-.61,2.24,2.24,0,0,1,.05-.67l1.57-7-4.06,3.41a1,1,0,0,1-.78.25,1,1,0,0,1-.73-.39,1,1,0,0,1-.26-.78,1.08,1.08,0,0,1,.39-.73Z"/><path class="cls-2" d="M26,215.19a5.84,5.84,0,0,1-1.26-1.74,4.76,4.76,0,0,1-.45-1.89,4.87,4.87,0,0,1,.33-1.91,5.38,5.38,0,0,1,1.13-1.73l0,0a5.19,5.19,0,0,1,1.65-1.17,5.1,5.1,0,0,1,1.91-.43,5.08,5.08,0,0,1,3.72,1.48,6.49,6.49,0,0,1,1.22,1.5,5.45,5.45,0,0,1,.56,1.52,1.35,1.35,0,0,1,0,.45,1.07,1.07,0,0,1-1,.83,1,1,0,0,1-.77-.3.84.84,0,0,1-.24-.32,2.43,2.43,0,0,1-.09-.3,3.6,3.6,0,0,0-.34-1,3.41,3.41,0,0,0-.75-1,2.51,2.51,0,0,0-1-.59,3.06,3.06,0,0,0-1.12-.14,2.93,2.93,0,0,0-1.11.28,3.22,3.22,0,0,0-1,.72l0,0a3.54,3.54,0,0,0-.71,1.05,2.92,2.92,0,0,0-.23,1.15,2.75,2.75,0,0,0,.23,1.13,2.92,2.92,0,0,0,.71,1,3.49,3.49,0,0,0,1.89,1l1-1-1.07-1a.93.93,0,0,1,0-1.33.9.9,0,0,1,.67-.29.89.89,0,0,1,.67.26l1.8,1.72a1.05,1.05,0,0,1,.34.76,1.08,1.08,0,0,1-.3.78l-1.66,1.73a1.48,1.48,0,0,1-1.51.48,8,8,0,0,1-1.53-.53A5.88,5.88,0,0,1,26,215.19Z"/><path class="cls-2" d="M36.51,212.48a1.11,1.11,0,0,1,.74-.39,1.1,1.1,0,0,1,1.18,1,1.08,1.08,0,0,1-.26.8l-5.11,6a1,1,0,0,1-.74.38,1,1,0,0,1-.79-.25,1.1,1.1,0,0,1-.38-.75,1.06,1.06,0,0,1,.26-.79Z"/><path class="cls-2" d="M34.13,221a.55.55,0,0,1,.17-.17,1.07,1.07,0,0,1,.21-.13L42,216.56a1.54,1.54,0,0,1,.79-.21,1.33,1.33,0,0,1,.74.29l.11.07a1.4,1.4,0,0,1,.47.65,1.65,1.65,0,0,1,0,.8l-2,8.29a1,1,0,0,1-.17.41,1.06,1.06,0,0,1-.69.42,1,1,0,0,1-.76-.21.93.93,0,0,1-.39-.54,1.56,1.56,0,0,1,0-.68l.41-1.64-3.47-2.63-1.53.88a1.16,1.16,0,0,1-.62.15,1,1,0,0,1-.59-.22,1,1,0,0,1-.18-1.41ZM41,222.19l.88-3.43-3.06,1.77Zm3-6a.49.49,0,0,1-.19-.69,1.11,1.11,0,0,1,.11-.2.51.51,0,0,1,.09-.13l.09-.11a.46.46,0,0,1,.29-.17.6.6,0,0,1,.4.08c.27.17.45.21.52.11a.34.34,0,0,0,.06-.16.28.28,0,0,0-.13-.2.34.34,0,0,0-.29-.08,1.11,1.11,0,0,1-.23,0h0a.67.67,0,0,1-.45-.07.69.69,0,0,1-.18-.12.73.73,0,0,1-.19-.2.5.5,0,0,1-.08-.27.64.64,0,0,1,.13-.36.4.4,0,0,1,.22-.19l.18-.06a1.71,1.71,0,0,1,.76.1,3.21,3.21,0,0,1,.73.43,1.76,1.76,0,0,1,.77,1,1.13,1.13,0,0,1-.23.92,1,1,0,0,1-.68.43,1.54,1.54,0,0,1-.87-.15l-.07.09q-.32.27-.75-.06Z"/><path class="cls-2" d="M47.51,221.1a1,1,0,0,1,.68-.48,1.07,1.07,0,0,1,.82.14l.2.13a1.1,1.1,0,0,1,.45.49,2.48,2.48,0,0,1,.16.65l.58,6.9,2.74-4.3a1,1,0,0,1,.67-.48,1.05,1.05,0,0,1,.81.15,1.09,1.09,0,0,1,.48.67,1.05,1.05,0,0,1-.15.81l-4.23,6.64a1.08,1.08,0,0,1-1.5.33l-.06,0a1.17,1.17,0,0,1-.45-.5,2.14,2.14,0,0,1-.16-.65l-.61-7.15-2.84,4.47a1.05,1.05,0,0,1-1.48.33,1.05,1.05,0,0,1-.33-1.48Z"/><path class="cls-2" d="M59.46,228.32a1.07,1.07,0,0,1,.63-.55,1,1,0,0,1,.83,0,1.1,1.1,0,0,1,.55.63,1,1,0,0,1-.06.83l-1.28,2.61,3.6,1.78L65,231.05a1.1,1.1,0,0,1,.63-.55A1.09,1.09,0,0,1,67,232l-3.48,7.08a1.1,1.1,0,0,1-.63.55,1.09,1.09,0,0,1-1.33-1.51l1.31-2.67-3.6-1.77-1.31,2.67a1.05,1.05,0,0,1-.62.55,1.09,1.09,0,0,1-.83-.06,1,1,0,0,1-.55-.62,1.07,1.07,0,0,1,0-.84Z"/><path class="cls-2" d="M69.63,242.88a5.42,5.42,0,0,1-1.82-1.14,5.17,5.17,0,0,1-1.15-1.62,4.7,4.7,0,0,1-.42-1.89,4.94,4.94,0,0,1,.36-2v0a5.06,5.06,0,0,1,1.09-1.71,5.21,5.21,0,0,1,1.61-1.11,5.29,5.29,0,0,1,2-.42,5.52,5.52,0,0,1,2.11.4,5.3,5.3,0,0,1,3,2.76,4.84,4.84,0,0,1,.43,1.89,5.11,5.11,0,0,1-.36,2v0a4.89,4.89,0,0,1-1.1,1.7,5.13,5.13,0,0,1-1.61,1.12,5.23,5.23,0,0,1-2,.42A5.48,5.48,0,0,1,69.63,242.88Zm.75-1.86a3.08,3.08,0,0,0,1.21.22A2.76,2.76,0,0,0,72.7,241a3.13,3.13,0,0,0,.93-.69,3.38,3.38,0,0,0,.64-1v0a3.36,3.36,0,0,0,.23-1.2,3,3,0,0,0-.22-1.15A3,3,0,0,0,71.41,235a2.6,2.6,0,0,0-1.11.28,3,3,0,0,0-.92.69,3.22,3.22,0,0,0-.65,1v0a3.32,3.32,0,0,0-.23,1.2,2.93,2.93,0,0,0,.22,1.14,3,3,0,0,0,.64,1A2.75,2.75,0,0,0,70.38,241Zm3.18-8.3a.72.72,0,0,1-.33-.23.32.32,0,0,1,0-.31.42.42,0,0,1,.11-.16.7.7,0,0,1,.16-.14l1.17-.85a1.16,1.16,0,0,1,.44-.2.81.81,0,0,1,.48,0,1.62,1.62,0,0,1,.36.2,2.12,2.12,0,0,1,.31.28,1,1,0,0,1,.19.3.3.3,0,0,1,0,.26.5.5,0,0,1-.17.23,1.46,1.46,0,0,1-.28.14l-1.11.45a1.88,1.88,0,0,1-.68.13A1.92,1.92,0,0,1,73.56,232.72Z"/><path class="cls-2" d="M75.62,244a1.06,1.06,0,0,1,.11-.21,1,1,0,0,1,.15-.2l5.55-6.46a1.4,1.4,0,0,1,.66-.46,1.22,1.22,0,0,1,.8,0l.12,0a1.26,1.26,0,0,1,.67.43,1.66,1.66,0,0,1,.29.75L85,246.34a1.22,1.22,0,0,1,0,.45,1.06,1.06,0,0,1-.5.63,1,1,0,0,1-.79.08,1,1,0,0,1-.55-.38,1.58,1.58,0,0,1-.24-.64l-.18-1.68-4.17-1.25-1.13,1.35a1.19,1.19,0,0,1-.53.37,1,1,0,0,1-.63,0,1,1,0,0,1-.6-.49A1,1,0,0,1,75.62,244Zm6.91-1.27-.37-3.52-2.26,2.73Z"/><path class="cls-2" d="M91.74,240.31a1,1,0,0,1,.45-.7,1.05,1.05,0,0,1,.81-.18l.24,0a1,1,0,0,1,.55.26,1.36,1.36,0,0,1,.32.47l1.82,4.68,3.37-3.75a1.09,1.09,0,0,1,1-.37l.24,0a1,1,0,0,1,.7.45,1.06,1.06,0,0,1,.18.81l-1.41,7.73a1.09,1.09,0,0,1-1.27.88,1,1,0,0,1-.69-.45,1.08,1.08,0,0,1-.17-.82l.88-4.85-2.4,2.55a1.37,1.37,0,0,1-.45.33,1,1,0,0,1-.54.05,1,1,0,0,1-.48-.24,1.55,1.55,0,0,1-.31-.46l-1.33-3.19-.88,4.84a1,1,0,0,1-.44.68,1,1,0,0,1-.81.17,1.07,1.07,0,0,1-.69-.44,1.05,1.05,0,0,1-.16-.8Z"/><path class="cls-2" d="M107,251.72a5.37,5.37,0,0,1-2.06-.6,5.08,5.08,0,0,1-1.55-1.23,4.88,4.88,0,0,1-.94-1.7,5,5,0,0,1-.2-2v0a4.86,4.86,0,0,1,.57-1.94,5.41,5.41,0,0,1,1.24-1.52,5.25,5.25,0,0,1,1.76-.95,5.6,5.6,0,0,1,2.14-.21,5.31,5.31,0,0,1,2.06.6,5,5,0,0,1,1.56,1.23,4.9,4.9,0,0,1,.93,1.71,5,5,0,0,1,.21,2v0a5.09,5.09,0,0,1-.58,1.94,5.21,5.21,0,0,1-1.24,1.52,5,5,0,0,1-1.76.94A5.41,5.41,0,0,1,107,251.72Zm.21-2a2.89,2.89,0,0,0,1.22-.13,2.69,2.69,0,0,0,1-.57,3.22,3.22,0,0,0,.69-.93,3.18,3.18,0,0,0,.33-1.16v0a3.32,3.32,0,0,0-.11-1.22,3,3,0,0,0-.52-1,2.92,2.92,0,0,0-.89-.75,3.08,3.08,0,0,0-2.4-.23,2.73,2.73,0,0,0-1,.58,2.92,2.92,0,0,0-.7.92,3.43,3.43,0,0,0-.32,1.17v0a3.26,3.26,0,0,0,.1,1.21,2.93,2.93,0,0,0,.53,1,3.06,3.06,0,0,0,.88.76A3,3,0,0,0,107.18,249.72Zm-1.52,4a.85.85,0,0,1,.39-.68,1.26,1.26,0,0,1,.84-.19,1.33,1.33,0,0,1,.82.34.86.86,0,0,1,.27.74v0a.9.9,0,0,1-.41.68,1.3,1.3,0,0,1-.86.19,1.25,1.25,0,0,1-.79-.34.89.89,0,0,1-.26-.75Z"/><path class="cls-2" d="M114.37,243.13a1,1,0,0,1,.34-.76,1.07,1.07,0,0,1,.78-.29,1,1,0,0,1,.75.34,1,1,0,0,1,.3.78l-.24,7.88a1.05,1.05,0,0,1-.34.76,1,1,0,0,1-.78.29,1,1,0,0,1-.76-.34,1,1,0,0,1-.3-.78Z"/><path class="cls-2" d="M127,252.06a5.13,5.13,0,0,1-2-.29,5,5,0,0,1-1.66-1,4.87,4.87,0,0,1-1.15-1.56,5.19,5.19,0,0,1-.48-2v0a5.13,5.13,0,0,1,.27-2,5.05,5.05,0,0,1,1-1.68,4.74,4.74,0,0,1,1.56-1.18,5.14,5.14,0,0,1,2.07-.52,5.56,5.56,0,0,1,1.9.18,5.44,5.44,0,0,1,1.45.65,1.17,1.17,0,0,1,.32.34,1,1,0,0,1,.15.5,1,1,0,0,1-.27.77,1.05,1.05,0,0,1-.75.34.88.88,0,0,1-.38-.05l-.28-.12a3.92,3.92,0,0,0-1-.48,3.21,3.21,0,0,0-1.09-.12,2.71,2.71,0,0,0-2,1,3,3,0,0,0-.54,1,3,3,0,0,0-.15,1.2v0a3.34,3.34,0,0,0,.27,1.19,3.22,3.22,0,0,0,.64,1,2.85,2.85,0,0,0,.94.62,2.69,2.69,0,0,0,1.18.19,3.25,3.25,0,0,0,1.17-.27,4.43,4.43,0,0,0,.93-.62,1,1,0,0,1,.64-.28,1,1,0,0,1,1.07,1,1,1,0,0,1-.33.79,5.18,5.18,0,0,1-1.45,1A5.42,5.42,0,0,1,127,252.06Z"/><path class="cls-2" d="M131.55,242.69a1,1,0,0,1,.21-.8,1,1,0,0,1,.72-.42,1.12,1.12,0,0,1,.81.22,1,1,0,0,1,.41.72l.38,2.89,4-.53-.38-2.89a1.05,1.05,0,0,1,.21-.8,1.08,1.08,0,0,1,.73-.42,1.09,1.09,0,0,1,.8.22,1,1,0,0,1,.42.72l1,7.82a1,1,0,0,1-.22.8,1,1,0,0,1-.72.42,1,1,0,0,1-.8-.22,1,1,0,0,1-.42-.72l-.39-2.94-4,.53.39,2.94a1.08,1.08,0,0,1-.93,1.22,1.07,1.07,0,0,1-.81-.22,1,1,0,0,1-.41-.72Z"/><path class="cls-2" d="M147.35,249.31a3.93,3.93,0,0,1-5.1-3.41l-1-4.54a1.07,1.07,0,0,1,.15-.82,1,1,0,0,1,.69-.47,1,1,0,0,1,.82.15,1.06,1.06,0,0,1,.47.69l1,4.49a2.67,2.67,0,0,0,.93,1.67,2.38,2.38,0,0,0,3.09-.63,2.52,2.52,0,0,0,.17-1.87l-1-4.56a1.09,1.09,0,0,1,.15-.82,1.06,1.06,0,0,1,.69-.47,1.08,1.08,0,0,1,1.29.84l.95,4.48a5.7,5.7,0,0,1,.12,2,3.78,3.78,0,0,1-.56,1.54,3.54,3.54,0,0,1-1.17,1.1A5.28,5.28,0,0,1,147.35,249.31Z"/><path class="cls-2" d="M155,243.32l-4.29-3.26a1.85,1.85,0,0,1-.28-.28,1.18,1.18,0,0,1-.19-.39,1,1,0,0,1,.09-.8,1.06,1.06,0,0,1,.66-.51,1,1,0,0,1,.64,0,1.84,1.84,0,0,1,.57.33l3.28,2.65,1.37-4a1.73,1.73,0,0,1,.3-.59,1,1,0,0,1,.52-.33,1,1,0,0,1,.83.07,1,1,0,0,1,.48.65,1,1,0,0,1,0,.42,1.59,1.59,0,0,1-.1.39l-1.85,5,.81,2.74a1.09,1.09,0,0,1-.74,1.35,1,1,0,0,1-.83-.09,1,1,0,0,1-.52-.65Z"/><path class="cls-2" d="M163.81,244.55a1.09,1.09,0,0,1-.83,0,1.05,1.05,0,0,1-.56-.61l-2.68-7.24a1.08,1.08,0,0,1,.64-1.39l5.14-1.91a.93.93,0,0,1,.75,0,1,1,0,0,1,.5.56.91.91,0,0,1,0,.74.92.92,0,0,1-.55.49l-4.13,1.54.69,1.88,3.54-1.31a.93.93,0,0,1,.75,0,1,1,0,0,1,.48,1.29,1,1,0,0,1-.56.5l-3.53,1.31.72,2,4.2-1.56a1,1,0,0,1,.75,0,.91.91,0,0,1,.5.55.87.87,0,0,1,0,.74.94.94,0,0,1-.55.5Zm-2-11a2.27,2.27,0,0,1-.48.58,2.43,2.43,0,0,1-.58.31.51.51,0,0,1-.34,0,.27.27,0,0,1-.22-.19.37.37,0,0,1,0-.21q0-.14.06-.24l.44-1.39a1.43,1.43,0,0,1,.26-.47,1.25,1.25,0,0,1,.51-.33l.64-.23a1.13,1.13,0,0,1,.6-.09,1.39,1.39,0,0,1,.5.19l1.24.76.2.15a.35.35,0,0,1,.14.16.3.3,0,0,1-.05.3.7.7,0,0,1-.3.19,2,2,0,0,1-.64.15,2.22,2.22,0,0,1-.74-.13l-.81-.29Zm2.24-2.41a.72.72,0,0,1-.4,0,.31.31,0,0,1-.24-.2.44.44,0,0,1,0-.2.76.76,0,0,1,0-.21l.3-1.41a1,1,0,0,1,.2-.45.89.89,0,0,1,.39-.28,2.35,2.35,0,0,1,.4-.09,1.93,1.93,0,0,1,.42,0,1.53,1.53,0,0,1,.34.09.32.32,0,0,1,.19.19.54.54,0,0,1,0,.28,2.24,2.24,0,0,1-.12.29l-.53,1.07a1.74,1.74,0,0,1-.42.56A2.18,2.18,0,0,1,164,231.11Z"/><path class="cls-2" d="M167.88,233.57a1.07,1.07,0,0,1,0-.84,1.1,1.1,0,0,1,.57-.61l.21-.09a1.08,1.08,0,0,1,.66-.11,2.45,2.45,0,0,1,.63.21l6.11,3.26-2.13-4.63a1.09,1.09,0,0,1,0-.83,1.07,1.07,0,0,1,1.38-.63,1,1,0,0,1,.6.56l3.29,7.15a1.11,1.11,0,0,1,0,.84,1,1,0,0,1-.57.61l-.06,0a1.17,1.17,0,0,1-.66.12,2.43,2.43,0,0,1-.64-.22L170.9,235l2.21,4.81a1,1,0,0,1,0,.82,1.05,1.05,0,0,1-.57.6,1,1,0,0,1-.82,0,1,1,0,0,1-.6-.56Z"/><path class="cls-2" d="M183.09,231.52a.7.7,0,0,1-.59.09.75.75,0,0,1-.48-.35.83.83,0,0,1-.11-.61.74.74,0,0,1,.35-.49l.23-.14-1.63-2.71a1.1,1.1,0,0,1-.12-.83,1.08,1.08,0,0,1,.49-.67l2.38-1.43a6,6,0,0,1,2-.77,5,5,0,0,1,2,0,4.74,4.74,0,0,1,1.73.78,4.81,4.81,0,0,1,1.32,1.47l0,0a5,5,0,0,1,.68,1.87,4.67,4.67,0,0,1-.12,1.9,5.14,5.14,0,0,1-.89,1.76,5.66,5.66,0,0,1-1.63,1.42l-2.37,1.43a1,1,0,0,1-.82.12,1,1,0,0,1-.67-.49l-1.52-2.53Zm1.24-2.61,1.09-.65a.77.77,0,0,1,.61-.09.81.81,0,0,1,.49.38.73.73,0,0,1,.09.59.8.8,0,0,1-.36.48l-1.09.66,1.07,1.78,1.46-.88a3.55,3.55,0,0,0,.94-.81,2.67,2.67,0,0,0,.49-1,3,3,0,0,0,0-1.12,3.33,3.33,0,0,0-.43-1.14l0,0a3.14,3.14,0,0,0-.81-.92,2.77,2.77,0,0,0-1-.5,2.85,2.85,0,0,0-1.13,0,3.33,3.33,0,0,0-1.15.44l-1.46.88Z"/><path class="cls-2" d="M189.68,221.73a1,1,0,0,1-.17-.82,1.09,1.09,0,0,1,1.27-.87,1.06,1.06,0,0,1,.7.46l4.45,6.51a1.08,1.08,0,0,1-.29,1.51,1.08,1.08,0,0,1-1.51-.29Z"/><path class="cls-2" d="M242.53,168.14c-2,0-8.47,3.86-19.08,14.78l-3.28,3.39-6.86-2.63,1.16-1.2a1.47,1.47,0,0,0,0-2.09l-.68-.67a1.51,1.51,0,0,0-1-.41,1.48,1.48,0,0,0-1.07.45l-2.32,2.39c-4.72-1.82-9.06-3.5-10.4-4.05a11.35,11.35,0,0,0-4.28-.86c-2,0-3.35.57-3.4,1.06-.07.67,15.44,9.94,22.39,14.71l-8.4,8.66a25.83,25.83,0,0,0-3.65,5c-3.07-.76-7.22-1.78-8.16-2a4.38,4.38,0,0,0-1.23-.16c-1.34,0-2.47.53-2.55.84s9.43,6.23,10.39,7.33c1.12.92,7.15,10.17,7.62,10.17h0c.41-.11,1.13-2,.58-3.8-.29-.92-1.43-5.05-2.28-8.09a26.54,26.54,0,0,0,4.85-3.79l8.4-8.65c5,6.78,14.64,21.95,15.35,21.95h0c.81-.1,1.7-3.81,0-7.69-.58-1.31-2.39-5.61-4.34-10.27l2.32-2.39a1.48,1.48,0,0,0,0-2.1l-.68-.66a1.47,1.47,0,0,0-2.09,0l-1.17,1.2c-1-2.5-2-4.89-2.82-6.78l3.28-3.38c11.91-12.26,15.08-19,14-20A.78.78,0,0,0,242.53,168.14Z"/><path class="cls-2" d="M282.91,168.72q-8.82,0-12.39-8.68L238.2,82.71a18.94,18.94,0,0,1-.93-2.57,9.89,9.89,0,0,1-.36-2.7,10.33,10.33,0,0,1,3.21-7.69,10.69,10.69,0,0,1,7.76-3.14,11,11,0,0,1,7.05,2.21A13,13,0,0,1,259,74.3l24.92,64.52,25.21-65.23A12.28,12.28,0,0,1,313,68.75a10.52,10.52,0,0,1,6.7-2.14,10.75,10.75,0,0,1,7.69,3,10,10,0,0,1,3.13,7.55,9.49,9.49,0,0,1-.36,2.57,16.19,16.19,0,0,1-.78,2.27L296.73,160q-3.57,8.69-12.39,8.68Z"/><path class="cls-2" d="M338.23,77.86a10.93,10.93,0,0,1,11-11h2.28A11.2,11.2,0,0,1,358,68.68a23.29,23.29,0,0,1,4.84,4.63l42.3,55.54V77.44a10.83,10.83,0,1,1,21.65,0v79.32a11,11,0,0,1-11,11h-.71a11.28,11.28,0,0,1-6.55-1.78,23.29,23.29,0,0,1-4.84-4.63l-43.87-57.54v53.41a10.82,10.82,0,1,1-21.64,0Z"/></g></g></svg>